G04 #@! TF.GenerationSoftware,KiCad,Pcbnew,8.0.4*
G04 #@! TF.CreationDate,2024-07-24T14:50:23+09:00*
G04 #@! TF.ProjectId,VR-Conditioner-MAX9926+reg,56522d43-6f6e-4646-9974-696f6e65722d,3.7*
G04 #@! TF.SameCoordinates,PX68c4118PY713e7a8*
G04 #@! TF.FileFunction,Copper,L2,Bot*
G04 #@! TF.FilePolarity,Positive*
%FSLAX46Y46*%
G04 Gerber Fmt 4.6, Leading zero omitted, Abs format (unit mm)*
G04 Created by KiCad (PCBNEW 8.0.4) date 2024-07-24 14:50:23*
%MOMM*%
%LPD*%
G01*
G04 APERTURE LIST*
G04 Aperture macros list*
%AMRoundRect*
0 Rectangle with rounded corners*
0 $1 Rounding radius*
0 $2 $3 $4 $5 $6 $7 $8 $9 X,Y pos of 4 corners*
0 Add a 4 corners polygon primitive as box body*
4,1,4,$2,$3,$4,$5,$6,$7,$8,$9,$2,$3,0*
0 Add four circle primitives for the rounded corners*
1,1,$1+$1,$2,$3*
1,1,$1+$1,$4,$5*
1,1,$1+$1,$6,$7*
1,1,$1+$1,$8,$9*
0 Add four rect primitives between the rounded corners*
20,1,$1+$1,$2,$3,$4,$5,0*
20,1,$1+$1,$4,$5,$6,$7,0*
20,1,$1+$1,$6,$7,$8,$9,0*
20,1,$1+$1,$8,$9,$2,$3,0*%
G04 Aperture macros list end*
G04 #@! TA.AperFunction,ComponentPad*
%ADD10R,1.600000X1.600000*%
G04 #@! TD*
G04 #@! TA.AperFunction,ComponentPad*
%ADD11O,1.600000X1.600000*%
G04 #@! TD*
G04 #@! TA.AperFunction,ComponentPad*
%ADD12R,1.700000X1.700000*%
G04 #@! TD*
G04 #@! TA.AperFunction,ComponentPad*
%ADD13O,1.700000X1.700000*%
G04 #@! TD*
G04 #@! TA.AperFunction,SMDPad,CuDef*
%ADD14RoundRect,0.250000X-0.400000X-0.625000X0.400000X-0.625000X0.400000X0.625000X-0.400000X0.625000X0*%
G04 #@! TD*
G04 #@! TA.AperFunction,SMDPad,CuDef*
%ADD15RoundRect,0.250000X0.400000X0.625000X-0.400000X0.625000X-0.400000X-0.625000X0.400000X-0.625000X0*%
G04 #@! TD*
G04 #@! TA.AperFunction,ViaPad*
%ADD16C,0.600000*%
G04 #@! TD*
G04 #@! TA.AperFunction,Conductor*
%ADD17C,0.300000*%
G04 #@! TD*
G04 #@! TA.AperFunction,Conductor*
%ADD18C,0.200000*%
G04 #@! TD*
G04 APERTURE END LIST*
D10*
G04 #@! TO.P,J1,1,Pin_1*
G04 #@! TO.N,Net-(J1-Pin_1)*
X9207500Y16510000D03*
D11*
G04 #@! TO.P,J1,2,Pin_2*
G04 #@! TO.N,Net-(J1-Pin_2)*
X9207500Y13970000D03*
G04 #@! TO.P,J1,3,Pin_3*
G04 #@! TO.N,Net-(J1-Pin_3)*
X9207500Y11430000D03*
G04 #@! TO.P,J1,4,Pin_4*
G04 #@! TO.N,Net-(J1-Pin_4)*
X9207500Y8890000D03*
G04 #@! TO.P,J1,5,Pin_5*
G04 #@! TO.N,VCC*
X16827500Y8890000D03*
G04 #@! TO.P,J1,6,Pin_6*
G04 #@! TO.N,GND*
X16827500Y11430000D03*
G04 #@! TO.P,J1,7,Pin_7*
G04 #@! TO.N,/COUT2*
X16827500Y13970000D03*
G04 #@! TO.P,J1,8,Pin_8*
G04 #@! TO.N,/COUT1*
X16827500Y16510000D03*
G04 #@! TD*
D12*
G04 #@! TO.P,J3,1,Pin_1*
G04 #@! TO.N,Net-(J3-Pin_1)*
X6880000Y29000000D03*
D13*
G04 #@! TO.P,J3,2,Pin_2*
G04 #@! TO.N,unconnected-(J3-Pin_2-Pad2)*
X9420000Y29000000D03*
G04 #@! TO.P,J3,3,Pin_3*
G04 #@! TO.N,unconnected-(J3-Pin_3-Pad3)*
X11960000Y29000000D03*
G04 #@! TO.P,J3,4,Pin_4*
G04 #@! TO.N,unconnected-(J3-Pin_4-Pad4)*
X14500000Y29000000D03*
G04 #@! TD*
D12*
G04 #@! TO.P,J2,1,Pin_1*
G04 #@! TO.N,VCC*
X18625000Y28800000D03*
D13*
G04 #@! TO.P,J2,2,Pin_2*
G04 #@! TO.N,Net-(J2-Pin_2)*
X18625000Y26260000D03*
G04 #@! TO.P,J2,3,Pin_3*
G04 #@! TO.N,GND*
X18625000Y23720000D03*
G04 #@! TO.P,J2,4,Pin_4*
G04 #@! TO.N,Net-(J2-Pin_4)*
X18625000Y21180000D03*
G04 #@! TD*
D14*
G04 #@! TO.P,R23,1*
G04 #@! TO.N,Net-(J1-Pin_3)*
X10900000Y5000000D03*
G04 #@! TO.P,R23,2*
G04 #@! TO.N,Net-(J1-Pin_4)*
X14000000Y5000000D03*
G04 #@! TD*
D15*
G04 #@! TO.P,R13,1*
G04 #@! TO.N,Net-(J1-Pin_1)*
X19000000Y5000000D03*
G04 #@! TO.P,R13,2*
G04 #@! TO.N,Net-(J1-Pin_2)*
X15900000Y5000000D03*
G04 #@! TD*
D16*
G04 #@! TO.N,GND*
X13652500Y11972990D03*
X5325000Y19000000D03*
G04 #@! TD*
D17*
G04 #@! TO.N,GND*
X13652500Y12065000D02*
X13652500Y12065000D01*
X19825000Y22520000D02*
X19825000Y14427500D01*
X13905000Y19000000D02*
X18625000Y23720000D01*
X18625000Y23720000D02*
X19825000Y22520000D01*
X14195490Y11430000D02*
X16827500Y11430000D01*
X5325000Y19000000D02*
X13905000Y19000000D01*
X19825000Y14427500D02*
X16827500Y11430000D01*
X13652500Y11972990D02*
X14195490Y11430000D01*
D18*
G04 #@! TO.N,Net-(J1-Pin_2)*
X15500000Y7677500D02*
X9207500Y13970000D01*
X15900000Y5000000D02*
X15500000Y5400000D01*
X15500000Y5400000D02*
X15500000Y7677500D01*
G04 #@! TO.N,Net-(J1-Pin_1)*
X18000000Y9613135D02*
X17283135Y10330000D01*
X17283135Y10330000D02*
X14446961Y10330000D01*
X14446961Y10330000D02*
X9207500Y15569461D01*
X18000000Y6000000D02*
X18000000Y9613135D01*
X9207500Y15569461D02*
X9207500Y16510000D01*
X19000000Y5000000D02*
X18000000Y6000000D01*
G04 #@! TO.N,Net-(J1-Pin_4)*
X9207500Y8890000D02*
X13097500Y5000000D01*
X13097500Y5000000D02*
X14000000Y5000000D01*
G04 #@! TO.N,Net-(J1-Pin_3)*
X8107500Y7792500D02*
X8107500Y10330000D01*
X8107500Y10330000D02*
X9207500Y11430000D01*
X10900000Y5000000D02*
X8107500Y7792500D01*
G04 #@! TD*
M02*
