G04 #@! TF.GenerationSoftware,KiCad,Pcbnew,8.0.4*
G04 #@! TF.CreationDate,2024-07-24T14:50:23+09:00*
G04 #@! TF.ProjectId,VR-Conditioner-MAX9926+reg,56522d43-6f6e-4646-9974-696f6e65722d,3.7*
G04 #@! TF.SameCoordinates,PX68c4118PY713e7a8*
G04 #@! TF.FileFunction,Copper,L1,Top*
G04 #@! TF.FilePolarity,Positive*
%FSLAX46Y46*%
G04 Gerber Fmt 4.6, Leading zero omitted, Abs format (unit mm)*
G04 Created by KiCad (PCBNEW 8.0.4) date 2024-07-24 14:50:23*
%MOMM*%
%LPD*%
G01*
G04 APERTURE LIST*
G04 Aperture macros list*
%AMRoundRect*
0 Rectangle with rounded corners*
0 $1 Rounding radius*
0 $2 $3 $4 $5 $6 $7 $8 $9 X,Y pos of 4 corners*
0 Add a 4 corners polygon primitive as box body*
4,1,4,$2,$3,$4,$5,$6,$7,$8,$9,$2,$3,0*
0 Add four circle primitives for the rounded corners*
1,1,$1+$1,$2,$3*
1,1,$1+$1,$4,$5*
1,1,$1+$1,$6,$7*
1,1,$1+$1,$8,$9*
0 Add four rect primitives between the rounded corners*
20,1,$1+$1,$2,$3,$4,$5,0*
20,1,$1+$1,$4,$5,$6,$7,0*
20,1,$1+$1,$6,$7,$8,$9,0*
20,1,$1+$1,$8,$9,$2,$3,0*%
G04 Aperture macros list end*
G04 #@! TA.AperFunction,SMDPad,CuDef*
%ADD10RoundRect,0.250000X0.337500X0.475000X-0.337500X0.475000X-0.337500X-0.475000X0.337500X-0.475000X0*%
G04 #@! TD*
G04 #@! TA.AperFunction,SMDPad,CuDef*
%ADD11RoundRect,0.250000X-0.412500X-0.650000X0.412500X-0.650000X0.412500X0.650000X-0.412500X0.650000X0*%
G04 #@! TD*
G04 #@! TA.AperFunction,SMDPad,CuDef*
%ADD12RoundRect,0.250000X0.412500X0.650000X-0.412500X0.650000X-0.412500X-0.650000X0.412500X-0.650000X0*%
G04 #@! TD*
G04 #@! TA.AperFunction,SMDPad,CuDef*
%ADD13RoundRect,0.250000X-0.312500X-0.625000X0.312500X-0.625000X0.312500X0.625000X-0.312500X0.625000X0*%
G04 #@! TD*
G04 #@! TA.AperFunction,SMDPad,CuDef*
%ADD14RoundRect,0.250000X0.312500X0.625000X-0.312500X0.625000X-0.312500X-0.625000X0.312500X-0.625000X0*%
G04 #@! TD*
G04 #@! TA.AperFunction,SMDPad,CuDef*
%ADD15RoundRect,0.250000X0.400000X0.625000X-0.400000X0.625000X-0.400000X-0.625000X0.400000X-0.625000X0*%
G04 #@! TD*
G04 #@! TA.AperFunction,ComponentPad*
%ADD16R,1.600000X1.600000*%
G04 #@! TD*
G04 #@! TA.AperFunction,ComponentPad*
%ADD17O,1.600000X1.600000*%
G04 #@! TD*
G04 #@! TA.AperFunction,SMDPad,CuDef*
%ADD18RoundRect,0.250000X0.350000X0.450000X-0.350000X0.450000X-0.350000X-0.450000X0.350000X-0.450000X0*%
G04 #@! TD*
G04 #@! TA.AperFunction,SMDPad,CuDef*
%ADD19R,0.354800X1.454899*%
G04 #@! TD*
G04 #@! TA.AperFunction,SMDPad,CuDef*
%ADD20RoundRect,0.250000X-0.400000X-0.625000X0.400000X-0.625000X0.400000X0.625000X-0.400000X0.625000X0*%
G04 #@! TD*
G04 #@! TA.AperFunction,ComponentPad*
%ADD21R,1.700000X1.700000*%
G04 #@! TD*
G04 #@! TA.AperFunction,ComponentPad*
%ADD22O,1.700000X1.700000*%
G04 #@! TD*
G04 #@! TA.AperFunction,SMDPad,CuDef*
%ADD23RoundRect,0.249999X-0.450001X-1.425001X0.450001X-1.425001X0.450001X1.425001X-0.450001X1.425001X0*%
G04 #@! TD*
G04 #@! TA.AperFunction,ViaPad*
%ADD24C,0.600000*%
G04 #@! TD*
G04 #@! TA.AperFunction,Conductor*
%ADD25C,0.300000*%
G04 #@! TD*
G04 #@! TA.AperFunction,Conductor*
%ADD26C,0.200000*%
G04 #@! TD*
G04 APERTURE END LIST*
D10*
G04 #@! TO.P,C1,1*
G04 #@! TO.N,VCC*
X21000000Y5000000D03*
G04 #@! TO.P,C1,2*
G04 #@! TO.N,GND*
X18925000Y5000000D03*
G04 #@! TD*
G04 #@! TO.P,C2,1*
G04 #@! TO.N,VCC*
X21000000Y8250000D03*
G04 #@! TO.P,C2,2*
G04 #@! TO.N,GND*
X18925000Y8250000D03*
G04 #@! TD*
G04 #@! TO.P,C3,1*
G04 #@! TO.N,VCC*
X21040000Y11500000D03*
G04 #@! TO.P,C3,2*
G04 #@! TO.N,GND*
X18965000Y11500000D03*
G04 #@! TD*
D11*
G04 #@! TO.P,C10,1*
G04 #@! TO.N,Net-(U1-IN1+)*
X3250000Y13500000D03*
G04 #@! TO.P,C10,2*
G04 #@! TO.N,Net-(U1-IN1-)*
X6375000Y13500000D03*
G04 #@! TD*
D12*
G04 #@! TO.P,C20,1*
G04 #@! TO.N,Net-(U1-IN2-)*
X9175000Y4750000D03*
G04 #@! TO.P,C20,2*
G04 #@! TO.N,Net-(U1-IN2+)*
X6050000Y4750000D03*
G04 #@! TD*
D13*
G04 #@! TO.P,R3,1*
G04 #@! TO.N,Net-(U1-IN2+)*
X3825000Y7250000D03*
G04 #@! TO.P,R3,2*
G04 #@! TO.N,Net-(J1-Pin_3)*
X6750000Y7250000D03*
G04 #@! TD*
D14*
G04 #@! TO.P,R2,1*
G04 #@! TO.N,Net-(U1-IN2-)*
X14000000Y4750000D03*
G04 #@! TO.P,R2,2*
G04 #@! TO.N,Net-(J1-Pin_4)*
X11075000Y4750000D03*
G04 #@! TD*
D15*
G04 #@! TO.P,R1,1*
G04 #@! TO.N,Net-(U1-IN1-)*
X6000000Y10750000D03*
G04 #@! TO.P,R1,2*
G04 #@! TO.N,Net-(J1-Pin_2)*
X2900000Y10750000D03*
G04 #@! TD*
D16*
G04 #@! TO.P,J1,1,Pin_1*
G04 #@! TO.N,Net-(J1-Pin_1)*
X9207500Y16510000D03*
D17*
G04 #@! TO.P,J1,2,Pin_2*
G04 #@! TO.N,Net-(J1-Pin_2)*
X9207500Y13970000D03*
G04 #@! TO.P,J1,3,Pin_3*
G04 #@! TO.N,Net-(J1-Pin_3)*
X9207500Y11430000D03*
G04 #@! TO.P,J1,4,Pin_4*
G04 #@! TO.N,Net-(J1-Pin_4)*
X9207500Y8890000D03*
G04 #@! TO.P,J1,5,Pin_5*
G04 #@! TO.N,VCC*
X16827500Y8890000D03*
G04 #@! TO.P,J1,6,Pin_6*
G04 #@! TO.N,GND*
X16827500Y11430000D03*
G04 #@! TO.P,J1,7,Pin_7*
G04 #@! TO.N,/COUT2*
X16827500Y13970000D03*
G04 #@! TO.P,J1,8,Pin_8*
G04 #@! TO.N,/COUT1*
X16827500Y16510000D03*
G04 #@! TD*
D10*
G04 #@! TO.P,R10,1*
G04 #@! TO.N,VCC*
X21040000Y18000000D03*
G04 #@! TO.P,R10,2*
G04 #@! TO.N,/COUT1*
X18965000Y18000000D03*
G04 #@! TD*
D18*
G04 #@! TO.P,R20,1*
G04 #@! TO.N,VCC*
X21000000Y14750000D03*
G04 #@! TO.P,R20,2*
G04 #@! TO.N,/COUT2*
X19000000Y14750000D03*
G04 #@! TD*
D19*
G04 #@! TO.P,U1,1,INT_THRS1*
G04 #@! TO.N,Net-(J2-Pin_2)*
X15240000Y16056348D03*
G04 #@! TO.P,U1,2,EXT1*
G04 #@! TO.N,Net-(J2-Pin_4)*
X14605000Y16056348D03*
G04 #@! TO.P,U1,3,BIAS1*
G04 #@! TO.N,Net-(U1-BIAS1)*
X13970000Y16056348D03*
G04 #@! TO.P,U1,4,COUT1*
G04 #@! TO.N,/COUT1*
X13335000Y16056348D03*
G04 #@! TO.P,U1,5,COUT2*
G04 #@! TO.N,/COUT2*
X12700000Y16056348D03*
G04 #@! TO.P,U1,6,BIAS2*
G04 #@! TO.N,Net-(U1-BIAS1)*
X12065000Y16056348D03*
G04 #@! TO.P,U1,7,EXT2*
G04 #@! TO.N,Net-(J3-Pin_1)*
X11430000Y16056348D03*
G04 #@! TO.P,U1,8,INT_THRS2*
G04 #@! TO.N,GND*
X10795000Y16056348D03*
G04 #@! TO.P,U1,9,IN2+*
G04 #@! TO.N,Net-(U1-IN2+)*
X10795000Y10613652D03*
G04 #@! TO.P,U1,10,IN2-*
G04 #@! TO.N,Net-(U1-IN2-)*
X11430000Y10613652D03*
G04 #@! TO.P,U1,11,GND*
G04 #@! TO.N,GND*
X12065000Y10613652D03*
G04 #@! TO.P,U1,12,DIRN*
G04 #@! TO.N,unconnected-(U1-DIRN-Pad12)*
X12700000Y10613652D03*
G04 #@! TO.P,U1,13,ZERO_EN*
G04 #@! TO.N,VCC*
X13335000Y10613652D03*
G04 #@! TO.P,U1,14,VCC*
X13970000Y10613652D03*
G04 #@! TO.P,U1,15,IN1-*
G04 #@! TO.N,Net-(U1-IN1-)*
X14605000Y10613652D03*
G04 #@! TO.P,U1,16,IN1+*
G04 #@! TO.N,Net-(U1-IN1+)*
X15240000Y10613652D03*
G04 #@! TD*
D20*
G04 #@! TO.P,R12,1*
G04 #@! TO.N,Net-(U1-IN1+)*
X3847500Y17000000D03*
G04 #@! TO.P,R12,2*
G04 #@! TO.N,Net-(J1-Pin_1)*
X6947500Y17000000D03*
G04 #@! TD*
D21*
G04 #@! TO.P,J3,1,Pin_1*
G04 #@! TO.N,Net-(J3-Pin_1)*
X6880000Y29000000D03*
D22*
G04 #@! TO.P,J3,2,Pin_2*
G04 #@! TO.N,unconnected-(J3-Pin_2-Pad2)*
X9420000Y29000000D03*
G04 #@! TO.P,J3,3,Pin_3*
G04 #@! TO.N,unconnected-(J3-Pin_3-Pad3)*
X11960000Y29000000D03*
G04 #@! TO.P,J3,4,Pin_4*
G04 #@! TO.N,unconnected-(J3-Pin_4-Pad4)*
X14500000Y29000000D03*
G04 #@! TD*
D15*
G04 #@! TO.P,R5,1*
G04 #@! TO.N,GND*
X15637500Y24500000D03*
G04 #@! TO.P,R5,2*
G04 #@! TO.N,Net-(U1-BIAS1)*
X12537500Y24500000D03*
G04 #@! TD*
D23*
G04 #@! TO.P,R6,1*
G04 #@! TO.N,Net-(J3-Pin_1)*
X3575000Y25000000D03*
G04 #@! TO.P,R6,2*
G04 #@! TO.N,VCC*
X9675000Y25000000D03*
G04 #@! TD*
D15*
G04 #@! TO.P,R4,1*
G04 #@! TO.N,Net-(U1-BIAS1)*
X13500000Y21000000D03*
G04 #@! TO.P,R4,2*
G04 #@! TO.N,VCC*
X10400000Y21000000D03*
G04 #@! TD*
D21*
G04 #@! TO.P,J2,1,Pin_1*
G04 #@! TO.N,VCC*
X18625000Y28800000D03*
D22*
G04 #@! TO.P,J2,2,Pin_2*
G04 #@! TO.N,Net-(J2-Pin_2)*
X18625000Y26260000D03*
G04 #@! TO.P,J2,3,Pin_3*
G04 #@! TO.N,GND*
X18625000Y23720000D03*
G04 #@! TO.P,J2,4,Pin_4*
G04 #@! TO.N,Net-(J2-Pin_4)*
X18625000Y21180000D03*
G04 #@! TD*
D20*
G04 #@! TO.P,R7,1*
G04 #@! TO.N,GND*
X4000000Y21000000D03*
G04 #@! TO.P,R7,2*
G04 #@! TO.N,Net-(J3-Pin_1)*
X7100000Y21000000D03*
G04 #@! TD*
D24*
G04 #@! TO.N,GND*
X13652500Y11972990D03*
X5325000Y19000000D03*
G04 #@! TD*
D25*
G04 #@! TO.N,GND*
X16827500Y11430000D02*
X18965000Y9292500D01*
D26*
X12496889Y11972990D02*
X13652500Y11972990D01*
D25*
X4000000Y21000000D02*
X4000000Y20325000D01*
D26*
X12065000Y10613652D02*
X12065000Y11541101D01*
D25*
X18925000Y9332500D02*
X18925000Y5000000D01*
X4000000Y20325000D02*
X5325000Y19000000D01*
D26*
X12065000Y11541101D02*
X12496889Y11972990D01*
D25*
X17845000Y24500000D02*
X18625000Y23720000D01*
X15637500Y24500000D02*
X17845000Y24500000D01*
X10795000Y16056348D02*
X10795000Y15205000D01*
D26*
X12065000Y10613652D02*
X12065000Y10565000D01*
D25*
X16827500Y11430000D02*
X18925000Y9332500D01*
X12362989Y13637011D02*
X14620489Y13637011D01*
X10795000Y15205000D02*
X12362989Y13637011D01*
D26*
X12065000Y10565000D02*
X12000000Y10500000D01*
D25*
X18395000Y11430000D02*
X18965000Y12000000D01*
X16827500Y11430000D02*
X18395000Y11430000D01*
X13652500Y11972990D02*
X13527010Y11972990D01*
X14620489Y13637011D02*
X16827500Y11430000D01*
X13527010Y11972990D02*
X13500000Y12000000D01*
X18965000Y9292500D02*
X18965000Y8500000D01*
G04 #@! TO.N,VCC*
X15257500Y8890000D02*
X16827500Y8890000D01*
X16321498Y8890000D02*
X16827500Y8890000D01*
X21750000Y8250000D02*
X22500000Y7500000D01*
X13970000Y9586204D02*
X14028102Y9528102D01*
X9675000Y25000000D02*
X12475000Y27800000D01*
X22000000Y3500000D02*
X22500000Y4000000D01*
X22500000Y12000000D02*
X22500000Y11500000D01*
X21002500Y14680000D02*
X21002500Y15000000D01*
X22000000Y15000000D02*
X22500000Y14500000D01*
X22000000Y5000000D02*
X22500000Y4500000D01*
X10400000Y21000000D02*
X10400000Y24275000D01*
X22000000Y12000000D02*
X22500000Y11500000D01*
X14666203Y8890000D02*
X16827500Y8890000D01*
X22500000Y4000000D02*
X22500000Y4500000D01*
X22500000Y4500000D02*
X22500000Y7500000D01*
X21002500Y15000000D02*
X22000000Y15000000D01*
X22500000Y16000000D02*
X22500000Y14500000D01*
X18625000Y28800000D02*
X18800000Y28800000D01*
X16827500Y8890000D02*
X16827500Y4172500D01*
D26*
X16827500Y8672500D02*
X17000000Y8500000D01*
D25*
X22500000Y7500000D02*
X22500000Y11500000D01*
X22500000Y17500000D02*
X22500000Y16000000D01*
X21000000Y5000000D02*
X22000000Y5000000D01*
X17500000Y3500000D02*
X22000000Y3500000D01*
X16827500Y4172500D02*
X17500000Y3500000D01*
X17625000Y27800000D02*
X18625000Y28800000D01*
X12475000Y27800000D02*
X17625000Y27800000D01*
D26*
X21040000Y4677500D02*
X21040000Y4500000D01*
D25*
X14028102Y9528102D02*
X14666203Y8890000D01*
X22500000Y24925000D02*
X22500000Y16000000D01*
X18800000Y28800000D02*
X19000000Y29000000D01*
X13335000Y10613652D02*
X13335000Y10221203D01*
X21000000Y8250000D02*
X21750000Y8250000D01*
X21040000Y14642500D02*
X21002500Y14680000D01*
X21040000Y12000000D02*
X22000000Y12000000D01*
X13335000Y10221203D02*
X14028102Y9528102D01*
X18625000Y28800000D02*
X22500000Y24925000D01*
X21040000Y18000000D02*
X22000000Y18000000D01*
X22500000Y14500000D02*
X22500000Y12000000D01*
X10400000Y24275000D02*
X9675000Y25000000D01*
X22000000Y18000000D02*
X22500000Y17500000D01*
X13970000Y10613652D02*
X13970000Y9586204D01*
D26*
X16827500Y8890000D02*
X16827500Y8672500D01*
G04 #@! TO.N,Net-(J2-Pin_2)*
X18133603Y19500000D02*
X19032909Y19500000D01*
X19032909Y19500000D02*
X19775000Y20242091D01*
X19775000Y20242091D02*
X19775000Y25110000D01*
X15240000Y16056348D02*
X15240000Y16606397D01*
X15240000Y16606397D02*
X18133603Y19500000D01*
X19775000Y25110000D02*
X18625000Y26260000D01*
G04 #@! TO.N,Net-(J1-Pin_2)*
X8407501Y14769999D02*
X4982499Y14769999D01*
X9207500Y13970000D02*
X8407501Y14769999D01*
X4982499Y12832499D02*
X2900000Y10750000D01*
X4982499Y14769999D02*
X4982499Y12832499D01*
G04 #@! TO.N,Net-(J1-Pin_1)*
X6947500Y17500000D02*
X8217500Y17500000D01*
X8953500Y16256000D02*
X9207500Y16510000D01*
X8217500Y17500000D02*
X9207500Y16510000D01*
G04 #@! TO.N,Net-(J1-Pin_4)*
X11075000Y4750000D02*
X11075000Y7022500D01*
X11430000Y4930000D02*
X11250000Y4750000D01*
X11075000Y7022500D02*
X9207500Y8890000D01*
G04 #@! TO.N,Net-(J1-Pin_3)*
X6750000Y7250000D02*
X6750000Y8972500D01*
X6750000Y8972500D02*
X9207500Y11430000D01*
X8680000Y11430000D02*
X9207500Y11430000D01*
G04 #@! TO.N,Net-(U1-IN1-)*
X7087989Y12787011D02*
X6375000Y13500000D01*
X13712989Y12787011D02*
X7087989Y12787011D01*
X14605000Y11895000D02*
X13712989Y12787011D01*
X6375000Y11125000D02*
X6000000Y10750000D01*
X5850000Y10250000D02*
X5850000Y10612500D01*
X6375000Y13500000D02*
X6375000Y11125000D01*
X14605000Y10613652D02*
X14605000Y11895000D01*
G04 #@! TO.N,Net-(U1-IN2-)*
X12825000Y3575000D02*
X14000000Y4750000D01*
X11430000Y7320000D02*
X11430000Y10613652D01*
X9650000Y3575000D02*
X12825000Y3575000D01*
X8475000Y4750000D02*
X9650000Y3575000D01*
X14000000Y4750000D02*
X11430000Y7320000D01*
G04 #@! TO.N,Net-(U1-IN2+)*
X10511348Y10330000D02*
X10795000Y10613652D01*
X8107500Y6107500D02*
X8107500Y9357500D01*
X6750000Y4750000D02*
X6325000Y4750000D01*
X8107500Y9357500D02*
X9080000Y10330000D01*
X6750000Y4750000D02*
X8107500Y6107500D01*
X6325000Y4750000D02*
X3825000Y7250000D01*
X9080000Y10330000D02*
X10511348Y10330000D01*
G04 #@! TO.N,Net-(U1-IN1+)*
X14312989Y13187011D02*
X15240000Y12260000D01*
X4408000Y16939500D02*
X3847500Y17500000D01*
X5677501Y15169999D02*
X9563136Y15169999D01*
X11546124Y13187011D02*
X14312989Y13187011D01*
X9563136Y15169999D02*
X11546124Y13187011D01*
X15240000Y12260000D02*
X15240000Y10613652D01*
X3847500Y17000000D02*
X5677501Y15169999D01*
X3847500Y17000000D02*
X3847500Y14097500D01*
X3847500Y14097500D02*
X3250000Y13500000D01*
G04 #@! TO.N,/COUT1*
X13335000Y16056348D02*
X13335000Y15128899D01*
X16827500Y16107586D02*
X16827500Y16510000D01*
X13335000Y15128899D02*
X13935012Y14528887D01*
X15248802Y14528888D02*
X16827500Y16107586D01*
X13935012Y14528887D02*
X15248802Y14528888D01*
X18317500Y18000000D02*
X18965000Y18000000D01*
X16827500Y16510000D02*
X18317500Y18000000D01*
G04 #@! TO.N,/COUT2*
X12700000Y14800000D02*
X13412967Y14087033D01*
X12700000Y16056348D02*
X12700000Y14800000D01*
X16827500Y13970000D02*
X17972500Y13970000D01*
X16710467Y14087033D02*
X16827500Y13970000D01*
X17972500Y13970000D02*
X19002500Y15000000D01*
X13412967Y14087033D02*
X16710467Y14087033D01*
G04 #@! TO.N,Net-(U1-BIAS1)*
X13970000Y16056348D02*
X13970000Y16926197D01*
X13500000Y17583797D02*
X13000000Y17083797D01*
X12065000Y16983797D02*
X12065000Y16056348D01*
X12537500Y21962500D02*
X13500000Y21000000D01*
X13000000Y17083797D02*
X12165000Y17083797D01*
X13812400Y17083797D02*
X13000000Y17083797D01*
X12537500Y24500000D02*
X12537500Y21962500D01*
X12165000Y17083797D02*
X12065000Y16983797D01*
X13970000Y16926197D02*
X13812400Y17083797D01*
X13500000Y21000000D02*
X13500000Y17583797D01*
G04 #@! TO.N,Net-(J3-Pin_1)*
X7814482Y21000000D02*
X11430000Y17384482D01*
X7100000Y21000000D02*
X7100000Y21475000D01*
X7500000Y20913797D02*
X7500000Y21000000D01*
X7100000Y21000000D02*
X7814482Y21000000D01*
X7500000Y21000000D02*
X7000000Y21500000D01*
X7100000Y21475000D02*
X3575000Y25000000D01*
X11430000Y17384482D02*
X11430000Y16056348D01*
X3575000Y25695000D02*
X6880000Y29000000D01*
X3575000Y25000000D02*
X3575000Y25695000D01*
X7000000Y21500000D02*
X7000000Y21712500D01*
G04 #@! TO.N,Net-(J2-Pin_4)*
X14605000Y17160000D02*
X18625000Y21180000D01*
X14605000Y16056348D02*
X14605000Y17160000D01*
G04 #@! TD*
M02*
