G04 #@! TF.GenerationSoftware,KiCad,Pcbnew,8.0.4*
G04 #@! TF.CreationDate,2024-07-24T14:50:23+09:00*
G04 #@! TF.ProjectId,VR-Conditioner-MAX9926+reg,56522d43-6f6e-4646-9974-696f6e65722d,3.7*
G04 #@! TF.SameCoordinates,PX68c4118PY713e7a8*
G04 #@! TF.FileFunction,Legend,Top*
G04 #@! TF.FilePolarity,Positive*
%FSLAX46Y46*%
G04 Gerber Fmt 4.6, Leading zero omitted, Abs format (unit mm)*
G04 Created by KiCad (PCBNEW 8.0.4) date 2024-07-24 14:50:23*
%MOMM*%
%LPD*%
G01*
G04 APERTURE LIST*
%ADD10C,0.150000*%
%ADD11C,0.120000*%
%ADD12C,0.152400*%
G04 APERTURE END LIST*
D10*
X19795833Y2960420D02*
X19748214Y2912800D01*
X19748214Y2912800D02*
X19605357Y2865181D01*
X19605357Y2865181D02*
X19510119Y2865181D01*
X19510119Y2865181D02*
X19367262Y2912800D01*
X19367262Y2912800D02*
X19272024Y3008039D01*
X19272024Y3008039D02*
X19224405Y3103277D01*
X19224405Y3103277D02*
X19176786Y3293753D01*
X19176786Y3293753D02*
X19176786Y3436610D01*
X19176786Y3436610D02*
X19224405Y3627086D01*
X19224405Y3627086D02*
X19272024Y3722324D01*
X19272024Y3722324D02*
X19367262Y3817562D01*
X19367262Y3817562D02*
X19510119Y3865181D01*
X19510119Y3865181D02*
X19605357Y3865181D01*
X19605357Y3865181D02*
X19748214Y3817562D01*
X19748214Y3817562D02*
X19795833Y3769943D01*
X20748214Y2865181D02*
X20176786Y2865181D01*
X20462500Y2865181D02*
X20462500Y3865181D01*
X20462500Y3865181D02*
X20367262Y3722324D01*
X20367262Y3722324D02*
X20272024Y3627086D01*
X20272024Y3627086D02*
X20176786Y3579467D01*
X19795833Y6210420D02*
X19748214Y6162800D01*
X19748214Y6162800D02*
X19605357Y6115181D01*
X19605357Y6115181D02*
X19510119Y6115181D01*
X19510119Y6115181D02*
X19367262Y6162800D01*
X19367262Y6162800D02*
X19272024Y6258039D01*
X19272024Y6258039D02*
X19224405Y6353277D01*
X19224405Y6353277D02*
X19176786Y6543753D01*
X19176786Y6543753D02*
X19176786Y6686610D01*
X19176786Y6686610D02*
X19224405Y6877086D01*
X19224405Y6877086D02*
X19272024Y6972324D01*
X19272024Y6972324D02*
X19367262Y7067562D01*
X19367262Y7067562D02*
X19510119Y7115181D01*
X19510119Y7115181D02*
X19605357Y7115181D01*
X19605357Y7115181D02*
X19748214Y7067562D01*
X19748214Y7067562D02*
X19795833Y7019943D01*
X20176786Y7019943D02*
X20224405Y7067562D01*
X20224405Y7067562D02*
X20319643Y7115181D01*
X20319643Y7115181D02*
X20557738Y7115181D01*
X20557738Y7115181D02*
X20652976Y7067562D01*
X20652976Y7067562D02*
X20700595Y7019943D01*
X20700595Y7019943D02*
X20748214Y6924705D01*
X20748214Y6924705D02*
X20748214Y6829467D01*
X20748214Y6829467D02*
X20700595Y6686610D01*
X20700595Y6686610D02*
X20129167Y6115181D01*
X20129167Y6115181D02*
X20748214Y6115181D01*
X19835833Y9460420D02*
X19788214Y9412800D01*
X19788214Y9412800D02*
X19645357Y9365181D01*
X19645357Y9365181D02*
X19550119Y9365181D01*
X19550119Y9365181D02*
X19407262Y9412800D01*
X19407262Y9412800D02*
X19312024Y9508039D01*
X19312024Y9508039D02*
X19264405Y9603277D01*
X19264405Y9603277D02*
X19216786Y9793753D01*
X19216786Y9793753D02*
X19216786Y9936610D01*
X19216786Y9936610D02*
X19264405Y10127086D01*
X19264405Y10127086D02*
X19312024Y10222324D01*
X19312024Y10222324D02*
X19407262Y10317562D01*
X19407262Y10317562D02*
X19550119Y10365181D01*
X19550119Y10365181D02*
X19645357Y10365181D01*
X19645357Y10365181D02*
X19788214Y10317562D01*
X19788214Y10317562D02*
X19835833Y10269943D01*
X20169167Y10365181D02*
X20788214Y10365181D01*
X20788214Y10365181D02*
X20454881Y9984229D01*
X20454881Y9984229D02*
X20597738Y9984229D01*
X20597738Y9984229D02*
X20692976Y9936610D01*
X20692976Y9936610D02*
X20740595Y9888991D01*
X20740595Y9888991D02*
X20788214Y9793753D01*
X20788214Y9793753D02*
X20788214Y9555658D01*
X20788214Y9555658D02*
X20740595Y9460420D01*
X20740595Y9460420D02*
X20692976Y9412800D01*
X20692976Y9412800D02*
X20597738Y9365181D01*
X20597738Y9365181D02*
X20312024Y9365181D01*
X20312024Y9365181D02*
X20216786Y9412800D01*
X20216786Y9412800D02*
X20169167Y9460420D01*
X4169642Y14990420D02*
X4122023Y14942800D01*
X4122023Y14942800D02*
X3979166Y14895181D01*
X3979166Y14895181D02*
X3883928Y14895181D01*
X3883928Y14895181D02*
X3741071Y14942800D01*
X3741071Y14942800D02*
X3645833Y15038039D01*
X3645833Y15038039D02*
X3598214Y15133277D01*
X3598214Y15133277D02*
X3550595Y15323753D01*
X3550595Y15323753D02*
X3550595Y15466610D01*
X3550595Y15466610D02*
X3598214Y15657086D01*
X3598214Y15657086D02*
X3645833Y15752324D01*
X3645833Y15752324D02*
X3741071Y15847562D01*
X3741071Y15847562D02*
X3883928Y15895181D01*
X3883928Y15895181D02*
X3979166Y15895181D01*
X3979166Y15895181D02*
X4122023Y15847562D01*
X4122023Y15847562D02*
X4169642Y15799943D01*
X5122023Y14895181D02*
X4550595Y14895181D01*
X4836309Y14895181D02*
X4836309Y15895181D01*
X4836309Y15895181D02*
X4741071Y15752324D01*
X4741071Y15752324D02*
X4645833Y15657086D01*
X4645833Y15657086D02*
X4550595Y15609467D01*
X5741071Y15895181D02*
X5836309Y15895181D01*
X5836309Y15895181D02*
X5931547Y15847562D01*
X5931547Y15847562D02*
X5979166Y15799943D01*
X5979166Y15799943D02*
X6026785Y15704705D01*
X6026785Y15704705D02*
X6074404Y15514229D01*
X6074404Y15514229D02*
X6074404Y15276134D01*
X6074404Y15276134D02*
X6026785Y15085658D01*
X6026785Y15085658D02*
X5979166Y14990420D01*
X5979166Y14990420D02*
X5931547Y14942800D01*
X5931547Y14942800D02*
X5836309Y14895181D01*
X5836309Y14895181D02*
X5741071Y14895181D01*
X5741071Y14895181D02*
X5645833Y14942800D01*
X5645833Y14942800D02*
X5598214Y14990420D01*
X5598214Y14990420D02*
X5550595Y15085658D01*
X5550595Y15085658D02*
X5502976Y15276134D01*
X5502976Y15276134D02*
X5502976Y15514229D01*
X5502976Y15514229D02*
X5550595Y15704705D01*
X5550595Y15704705D02*
X5598214Y15799943D01*
X5598214Y15799943D02*
X5645833Y15847562D01*
X5645833Y15847562D02*
X5741071Y15895181D01*
X6969642Y2540420D02*
X6922023Y2492800D01*
X6922023Y2492800D02*
X6779166Y2445181D01*
X6779166Y2445181D02*
X6683928Y2445181D01*
X6683928Y2445181D02*
X6541071Y2492800D01*
X6541071Y2492800D02*
X6445833Y2588039D01*
X6445833Y2588039D02*
X6398214Y2683277D01*
X6398214Y2683277D02*
X6350595Y2873753D01*
X6350595Y2873753D02*
X6350595Y3016610D01*
X6350595Y3016610D02*
X6398214Y3207086D01*
X6398214Y3207086D02*
X6445833Y3302324D01*
X6445833Y3302324D02*
X6541071Y3397562D01*
X6541071Y3397562D02*
X6683928Y3445181D01*
X6683928Y3445181D02*
X6779166Y3445181D01*
X6779166Y3445181D02*
X6922023Y3397562D01*
X6922023Y3397562D02*
X6969642Y3349943D01*
X7350595Y3349943D02*
X7398214Y3397562D01*
X7398214Y3397562D02*
X7493452Y3445181D01*
X7493452Y3445181D02*
X7731547Y3445181D01*
X7731547Y3445181D02*
X7826785Y3397562D01*
X7826785Y3397562D02*
X7874404Y3349943D01*
X7874404Y3349943D02*
X7922023Y3254705D01*
X7922023Y3254705D02*
X7922023Y3159467D01*
X7922023Y3159467D02*
X7874404Y3016610D01*
X7874404Y3016610D02*
X7302976Y2445181D01*
X7302976Y2445181D02*
X7922023Y2445181D01*
X8541071Y3445181D02*
X8636309Y3445181D01*
X8636309Y3445181D02*
X8731547Y3397562D01*
X8731547Y3397562D02*
X8779166Y3349943D01*
X8779166Y3349943D02*
X8826785Y3254705D01*
X8826785Y3254705D02*
X8874404Y3064229D01*
X8874404Y3064229D02*
X8874404Y2826134D01*
X8874404Y2826134D02*
X8826785Y2635658D01*
X8826785Y2635658D02*
X8779166Y2540420D01*
X8779166Y2540420D02*
X8731547Y2492800D01*
X8731547Y2492800D02*
X8636309Y2445181D01*
X8636309Y2445181D02*
X8541071Y2445181D01*
X8541071Y2445181D02*
X8445833Y2492800D01*
X8445833Y2492800D02*
X8398214Y2540420D01*
X8398214Y2540420D02*
X8350595Y2635658D01*
X8350595Y2635658D02*
X8302976Y2826134D01*
X8302976Y2826134D02*
X8302976Y3064229D01*
X8302976Y3064229D02*
X8350595Y3254705D01*
X8350595Y3254705D02*
X8398214Y3349943D01*
X8398214Y3349943D02*
X8445833Y3397562D01*
X8445833Y3397562D02*
X8541071Y3445181D01*
X993333Y6795181D02*
X660000Y7271372D01*
X421905Y6795181D02*
X421905Y7795181D01*
X421905Y7795181D02*
X802857Y7795181D01*
X802857Y7795181D02*
X898095Y7747562D01*
X898095Y7747562D02*
X945714Y7699943D01*
X945714Y7699943D02*
X993333Y7604705D01*
X993333Y7604705D02*
X993333Y7461848D01*
X993333Y7461848D02*
X945714Y7366610D01*
X945714Y7366610D02*
X898095Y7318991D01*
X898095Y7318991D02*
X802857Y7271372D01*
X802857Y7271372D02*
X421905Y7271372D01*
X1326667Y7795181D02*
X1945714Y7795181D01*
X1945714Y7795181D02*
X1612381Y7414229D01*
X1612381Y7414229D02*
X1755238Y7414229D01*
X1755238Y7414229D02*
X1850476Y7366610D01*
X1850476Y7366610D02*
X1898095Y7318991D01*
X1898095Y7318991D02*
X1945714Y7223753D01*
X1945714Y7223753D02*
X1945714Y6985658D01*
X1945714Y6985658D02*
X1898095Y6890420D01*
X1898095Y6890420D02*
X1850476Y6842800D01*
X1850476Y6842800D02*
X1755238Y6795181D01*
X1755238Y6795181D02*
X1469524Y6795181D01*
X1469524Y6795181D02*
X1374286Y6842800D01*
X1374286Y6842800D02*
X1326667Y6890420D01*
X16688833Y4295181D02*
X16355500Y4771372D01*
X16117405Y4295181D02*
X16117405Y5295181D01*
X16117405Y5295181D02*
X16498357Y5295181D01*
X16498357Y5295181D02*
X16593595Y5247562D01*
X16593595Y5247562D02*
X16641214Y5199943D01*
X16641214Y5199943D02*
X16688833Y5104705D01*
X16688833Y5104705D02*
X16688833Y4961848D01*
X16688833Y4961848D02*
X16641214Y4866610D01*
X16641214Y4866610D02*
X16593595Y4818991D01*
X16593595Y4818991D02*
X16498357Y4771372D01*
X16498357Y4771372D02*
X16117405Y4771372D01*
X17069786Y5199943D02*
X17117405Y5247562D01*
X17117405Y5247562D02*
X17212643Y5295181D01*
X17212643Y5295181D02*
X17450738Y5295181D01*
X17450738Y5295181D02*
X17545976Y5247562D01*
X17545976Y5247562D02*
X17593595Y5199943D01*
X17593595Y5199943D02*
X17641214Y5104705D01*
X17641214Y5104705D02*
X17641214Y5009467D01*
X17641214Y5009467D02*
X17593595Y4866610D01*
X17593595Y4866610D02*
X17022167Y4295181D01*
X17022167Y4295181D02*
X17641214Y4295181D01*
X4283333Y8475181D02*
X3950000Y8951372D01*
X3711905Y8475181D02*
X3711905Y9475181D01*
X3711905Y9475181D02*
X4092857Y9475181D01*
X4092857Y9475181D02*
X4188095Y9427562D01*
X4188095Y9427562D02*
X4235714Y9379943D01*
X4235714Y9379943D02*
X4283333Y9284705D01*
X4283333Y9284705D02*
X4283333Y9141848D01*
X4283333Y9141848D02*
X4235714Y9046610D01*
X4235714Y9046610D02*
X4188095Y8998991D01*
X4188095Y8998991D02*
X4092857Y8951372D01*
X4092857Y8951372D02*
X3711905Y8951372D01*
X5235714Y8475181D02*
X4664286Y8475181D01*
X4950000Y8475181D02*
X4950000Y9475181D01*
X4950000Y9475181D02*
X4854762Y9332324D01*
X4854762Y9332324D02*
X4759524Y9237086D01*
X4759524Y9237086D02*
X4664286Y9189467D01*
X8339166Y18533967D02*
X8339166Y18033967D01*
X8339166Y18033967D02*
X8305833Y17933967D01*
X8305833Y17933967D02*
X8239166Y17867300D01*
X8239166Y17867300D02*
X8139166Y17833967D01*
X8139166Y17833967D02*
X8072500Y17833967D01*
X9039166Y17833967D02*
X8639166Y17833967D01*
X8839166Y17833967D02*
X8839166Y18533967D01*
X8839166Y18533967D02*
X8772499Y18433967D01*
X8772499Y18433967D02*
X8705833Y18367300D01*
X8705833Y18367300D02*
X8639166Y18333967D01*
X19359642Y15865181D02*
X19026309Y16341372D01*
X18788214Y15865181D02*
X18788214Y16865181D01*
X18788214Y16865181D02*
X19169166Y16865181D01*
X19169166Y16865181D02*
X19264404Y16817562D01*
X19264404Y16817562D02*
X19312023Y16769943D01*
X19312023Y16769943D02*
X19359642Y16674705D01*
X19359642Y16674705D02*
X19359642Y16531848D01*
X19359642Y16531848D02*
X19312023Y16436610D01*
X19312023Y16436610D02*
X19264404Y16388991D01*
X19264404Y16388991D02*
X19169166Y16341372D01*
X19169166Y16341372D02*
X18788214Y16341372D01*
X20312023Y15865181D02*
X19740595Y15865181D01*
X20026309Y15865181D02*
X20026309Y16865181D01*
X20026309Y16865181D02*
X19931071Y16722324D01*
X19931071Y16722324D02*
X19835833Y16627086D01*
X19835833Y16627086D02*
X19740595Y16579467D01*
X20931071Y16865181D02*
X21026309Y16865181D01*
X21026309Y16865181D02*
X21121547Y16817562D01*
X21121547Y16817562D02*
X21169166Y16769943D01*
X21169166Y16769943D02*
X21216785Y16674705D01*
X21216785Y16674705D02*
X21264404Y16484229D01*
X21264404Y16484229D02*
X21264404Y16246134D01*
X21264404Y16246134D02*
X21216785Y16055658D01*
X21216785Y16055658D02*
X21169166Y15960420D01*
X21169166Y15960420D02*
X21121547Y15912800D01*
X21121547Y15912800D02*
X21026309Y15865181D01*
X21026309Y15865181D02*
X20931071Y15865181D01*
X20931071Y15865181D02*
X20835833Y15912800D01*
X20835833Y15912800D02*
X20788214Y15960420D01*
X20788214Y15960420D02*
X20740595Y16055658D01*
X20740595Y16055658D02*
X20692976Y16246134D01*
X20692976Y16246134D02*
X20692976Y16484229D01*
X20692976Y16484229D02*
X20740595Y16674705D01*
X20740595Y16674705D02*
X20788214Y16769943D01*
X20788214Y16769943D02*
X20835833Y16817562D01*
X20835833Y16817562D02*
X20931071Y16865181D01*
X19357142Y12645181D02*
X19023809Y13121372D01*
X18785714Y12645181D02*
X18785714Y13645181D01*
X18785714Y13645181D02*
X19166666Y13645181D01*
X19166666Y13645181D02*
X19261904Y13597562D01*
X19261904Y13597562D02*
X19309523Y13549943D01*
X19309523Y13549943D02*
X19357142Y13454705D01*
X19357142Y13454705D02*
X19357142Y13311848D01*
X19357142Y13311848D02*
X19309523Y13216610D01*
X19309523Y13216610D02*
X19261904Y13168991D01*
X19261904Y13168991D02*
X19166666Y13121372D01*
X19166666Y13121372D02*
X18785714Y13121372D01*
X19738095Y13549943D02*
X19785714Y13597562D01*
X19785714Y13597562D02*
X19880952Y13645181D01*
X19880952Y13645181D02*
X20119047Y13645181D01*
X20119047Y13645181D02*
X20214285Y13597562D01*
X20214285Y13597562D02*
X20261904Y13549943D01*
X20261904Y13549943D02*
X20309523Y13454705D01*
X20309523Y13454705D02*
X20309523Y13359467D01*
X20309523Y13359467D02*
X20261904Y13216610D01*
X20261904Y13216610D02*
X19690476Y12645181D01*
X19690476Y12645181D02*
X20309523Y12645181D01*
X20928571Y13645181D02*
X21023809Y13645181D01*
X21023809Y13645181D02*
X21119047Y13597562D01*
X21119047Y13597562D02*
X21166666Y13549943D01*
X21166666Y13549943D02*
X21214285Y13454705D01*
X21214285Y13454705D02*
X21261904Y13264229D01*
X21261904Y13264229D02*
X21261904Y13026134D01*
X21261904Y13026134D02*
X21214285Y12835658D01*
X21214285Y12835658D02*
X21166666Y12740420D01*
X21166666Y12740420D02*
X21119047Y12692800D01*
X21119047Y12692800D02*
X21023809Y12645181D01*
X21023809Y12645181D02*
X20928571Y12645181D01*
X20928571Y12645181D02*
X20833333Y12692800D01*
X20833333Y12692800D02*
X20785714Y12740420D01*
X20785714Y12740420D02*
X20738095Y12835658D01*
X20738095Y12835658D02*
X20690476Y13026134D01*
X20690476Y13026134D02*
X20690476Y13264229D01*
X20690476Y13264229D02*
X20738095Y13454705D01*
X20738095Y13454705D02*
X20785714Y13549943D01*
X20785714Y13549943D02*
X20833333Y13597562D01*
X20833333Y13597562D02*
X20928571Y13645181D01*
X10579166Y18798967D02*
X10579166Y18232300D01*
X10579166Y18232300D02*
X10612500Y18165634D01*
X10612500Y18165634D02*
X10645833Y18132300D01*
X10645833Y18132300D02*
X10712500Y18098967D01*
X10712500Y18098967D02*
X10845833Y18098967D01*
X10845833Y18098967D02*
X10912500Y18132300D01*
X10912500Y18132300D02*
X10945833Y18165634D01*
X10945833Y18165634D02*
X10979166Y18232300D01*
X10979166Y18232300D02*
X10979166Y18798967D01*
X11679166Y18098967D02*
X11279166Y18098967D01*
X11479166Y18098967D02*
X11479166Y18798967D01*
X11479166Y18798967D02*
X11412499Y18698967D01*
X11412499Y18698967D02*
X11345833Y18632300D01*
X11345833Y18632300D02*
X11279166Y18598967D01*
X15012319Y17780001D02*
X15250414Y17780001D01*
X15155176Y17541906D02*
X15250414Y17780001D01*
X15250414Y17780001D02*
X15155176Y18018096D01*
X15440890Y17637144D02*
X15250414Y17780001D01*
X15250414Y17780001D02*
X15440890Y17922858D01*
X15012319Y17780001D02*
X15250414Y17780001D01*
X15155176Y17541906D02*
X15250414Y17780001D01*
X15250414Y17780001D02*
X15155176Y18018096D01*
X15440890Y17637144D02*
X15250414Y17780001D01*
X15250414Y17780001D02*
X15440890Y17922858D01*
X4754642Y18365181D02*
X4421309Y18841372D01*
X4183214Y18365181D02*
X4183214Y19365181D01*
X4183214Y19365181D02*
X4564166Y19365181D01*
X4564166Y19365181D02*
X4659404Y19317562D01*
X4659404Y19317562D02*
X4707023Y19269943D01*
X4707023Y19269943D02*
X4754642Y19174705D01*
X4754642Y19174705D02*
X4754642Y19031848D01*
X4754642Y19031848D02*
X4707023Y18936610D01*
X4707023Y18936610D02*
X4659404Y18888991D01*
X4659404Y18888991D02*
X4564166Y18841372D01*
X4564166Y18841372D02*
X4183214Y18841372D01*
X5707023Y18365181D02*
X5135595Y18365181D01*
X5421309Y18365181D02*
X5421309Y19365181D01*
X5421309Y19365181D02*
X5326071Y19222324D01*
X5326071Y19222324D02*
X5230833Y19127086D01*
X5230833Y19127086D02*
X5135595Y19079467D01*
X6087976Y19269943D02*
X6135595Y19317562D01*
X6135595Y19317562D02*
X6230833Y19365181D01*
X6230833Y19365181D02*
X6468928Y19365181D01*
X6468928Y19365181D02*
X6564166Y19317562D01*
X6564166Y19317562D02*
X6611785Y19269943D01*
X6611785Y19269943D02*
X6659404Y19174705D01*
X6659404Y19174705D02*
X6659404Y19079467D01*
X6659404Y19079467D02*
X6611785Y18936610D01*
X6611785Y18936610D02*
X6040357Y18365181D01*
X6040357Y18365181D02*
X6659404Y18365181D01*
X4454819Y29166667D02*
X5169104Y29166667D01*
X5169104Y29166667D02*
X5311961Y29119048D01*
X5311961Y29119048D02*
X5407200Y29023810D01*
X5407200Y29023810D02*
X5454819Y28880953D01*
X5454819Y28880953D02*
X5454819Y28785715D01*
X4454819Y29547620D02*
X4454819Y30166667D01*
X4454819Y30166667D02*
X4835771Y29833334D01*
X4835771Y29833334D02*
X4835771Y29976191D01*
X4835771Y29976191D02*
X4883390Y30071429D01*
X4883390Y30071429D02*
X4931009Y30119048D01*
X4931009Y30119048D02*
X5026247Y30166667D01*
X5026247Y30166667D02*
X5264342Y30166667D01*
X5264342Y30166667D02*
X5359580Y30119048D01*
X5359580Y30119048D02*
X5407200Y30071429D01*
X5407200Y30071429D02*
X5454819Y29976191D01*
X5454819Y29976191D02*
X5454819Y29690477D01*
X5454819Y29690477D02*
X5407200Y29595239D01*
X5407200Y29595239D02*
X5359580Y29547620D01*
X13920833Y22225181D02*
X13587500Y22701372D01*
X13349405Y22225181D02*
X13349405Y23225181D01*
X13349405Y23225181D02*
X13730357Y23225181D01*
X13730357Y23225181D02*
X13825595Y23177562D01*
X13825595Y23177562D02*
X13873214Y23129943D01*
X13873214Y23129943D02*
X13920833Y23034705D01*
X13920833Y23034705D02*
X13920833Y22891848D01*
X13920833Y22891848D02*
X13873214Y22796610D01*
X13873214Y22796610D02*
X13825595Y22748991D01*
X13825595Y22748991D02*
X13730357Y22701372D01*
X13730357Y22701372D02*
X13349405Y22701372D01*
X14825595Y23225181D02*
X14349405Y23225181D01*
X14349405Y23225181D02*
X14301786Y22748991D01*
X14301786Y22748991D02*
X14349405Y22796610D01*
X14349405Y22796610D02*
X14444643Y22844229D01*
X14444643Y22844229D02*
X14682738Y22844229D01*
X14682738Y22844229D02*
X14777976Y22796610D01*
X14777976Y22796610D02*
X14825595Y22748991D01*
X14825595Y22748991D02*
X14873214Y22653753D01*
X14873214Y22653753D02*
X14873214Y22415658D01*
X14873214Y22415658D02*
X14825595Y22320420D01*
X14825595Y22320420D02*
X14777976Y22272800D01*
X14777976Y22272800D02*
X14682738Y22225181D01*
X14682738Y22225181D02*
X14444643Y22225181D01*
X14444643Y22225181D02*
X14349405Y22272800D01*
X14349405Y22272800D02*
X14301786Y22320420D01*
X3833333Y27045181D02*
X3500000Y27521372D01*
X3261905Y27045181D02*
X3261905Y28045181D01*
X3261905Y28045181D02*
X3642857Y28045181D01*
X3642857Y28045181D02*
X3738095Y27997562D01*
X3738095Y27997562D02*
X3785714Y27949943D01*
X3785714Y27949943D02*
X3833333Y27854705D01*
X3833333Y27854705D02*
X3833333Y27711848D01*
X3833333Y27711848D02*
X3785714Y27616610D01*
X3785714Y27616610D02*
X3738095Y27568991D01*
X3738095Y27568991D02*
X3642857Y27521372D01*
X3642857Y27521372D02*
X3261905Y27521372D01*
X4690476Y28045181D02*
X4500000Y28045181D01*
X4500000Y28045181D02*
X4404762Y27997562D01*
X4404762Y27997562D02*
X4357143Y27949943D01*
X4357143Y27949943D02*
X4261905Y27807086D01*
X4261905Y27807086D02*
X4214286Y27616610D01*
X4214286Y27616610D02*
X4214286Y27235658D01*
X4214286Y27235658D02*
X4261905Y27140420D01*
X4261905Y27140420D02*
X4309524Y27092800D01*
X4309524Y27092800D02*
X4404762Y27045181D01*
X4404762Y27045181D02*
X4595238Y27045181D01*
X4595238Y27045181D02*
X4690476Y27092800D01*
X4690476Y27092800D02*
X4738095Y27140420D01*
X4738095Y27140420D02*
X4785714Y27235658D01*
X4785714Y27235658D02*
X4785714Y27473753D01*
X4785714Y27473753D02*
X4738095Y27568991D01*
X4738095Y27568991D02*
X4690476Y27616610D01*
X4690476Y27616610D02*
X4595238Y27664229D01*
X4595238Y27664229D02*
X4404762Y27664229D01*
X4404762Y27664229D02*
X4309524Y27616610D01*
X4309524Y27616610D02*
X4261905Y27568991D01*
X4261905Y27568991D02*
X4214286Y27473753D01*
X11783333Y18725181D02*
X11450000Y19201372D01*
X11211905Y18725181D02*
X11211905Y19725181D01*
X11211905Y19725181D02*
X11592857Y19725181D01*
X11592857Y19725181D02*
X11688095Y19677562D01*
X11688095Y19677562D02*
X11735714Y19629943D01*
X11735714Y19629943D02*
X11783333Y19534705D01*
X11783333Y19534705D02*
X11783333Y19391848D01*
X11783333Y19391848D02*
X11735714Y19296610D01*
X11735714Y19296610D02*
X11688095Y19248991D01*
X11688095Y19248991D02*
X11592857Y19201372D01*
X11592857Y19201372D02*
X11211905Y19201372D01*
X12640476Y19391848D02*
X12640476Y18725181D01*
X12402381Y19772800D02*
X12164286Y19058515D01*
X12164286Y19058515D02*
X12783333Y19058515D01*
X22676666Y31615181D02*
X22676666Y30900896D01*
X22676666Y30900896D02*
X22629047Y30758039D01*
X22629047Y30758039D02*
X22533809Y30662800D01*
X22533809Y30662800D02*
X22390952Y30615181D01*
X22390952Y30615181D02*
X22295714Y30615181D01*
X23105238Y31519943D02*
X23152857Y31567562D01*
X23152857Y31567562D02*
X23248095Y31615181D01*
X23248095Y31615181D02*
X23486190Y31615181D01*
X23486190Y31615181D02*
X23581428Y31567562D01*
X23581428Y31567562D02*
X23629047Y31519943D01*
X23629047Y31519943D02*
X23676666Y31424705D01*
X23676666Y31424705D02*
X23676666Y31329467D01*
X23676666Y31329467D02*
X23629047Y31186610D01*
X23629047Y31186610D02*
X23057619Y30615181D01*
X23057619Y30615181D02*
X23676666Y30615181D01*
X5383333Y22365181D02*
X5050000Y22841372D01*
X4811905Y22365181D02*
X4811905Y23365181D01*
X4811905Y23365181D02*
X5192857Y23365181D01*
X5192857Y23365181D02*
X5288095Y23317562D01*
X5288095Y23317562D02*
X5335714Y23269943D01*
X5335714Y23269943D02*
X5383333Y23174705D01*
X5383333Y23174705D02*
X5383333Y23031848D01*
X5383333Y23031848D02*
X5335714Y22936610D01*
X5335714Y22936610D02*
X5288095Y22888991D01*
X5288095Y22888991D02*
X5192857Y22841372D01*
X5192857Y22841372D02*
X4811905Y22841372D01*
X5716667Y23365181D02*
X6383333Y23365181D01*
X6383333Y23365181D02*
X5954762Y22365181D01*
D11*
G04 #@! TO.C,C1*
X20223752Y5735000D02*
X19701248Y5735000D01*
X20223752Y4265000D02*
X19701248Y4265000D01*
G04 #@! TO.C,C2*
X20223752Y8985000D02*
X19701248Y8985000D01*
X20223752Y7515000D02*
X19701248Y7515000D01*
G04 #@! TO.C,C3*
X20263752Y12235000D02*
X19741248Y12235000D01*
X20263752Y10765000D02*
X19741248Y10765000D01*
G04 #@! TO.C,C10*
X4101248Y14410000D02*
X5523752Y14410000D01*
X4101248Y12590000D02*
X5523752Y12590000D01*
G04 #@! TO.C,C20*
X8323752Y5660000D02*
X6901248Y5660000D01*
X8323752Y3840000D02*
X6901248Y3840000D01*
G04 #@! TO.C,R3*
X4560436Y8160000D02*
X6014564Y8160000D01*
X4560436Y6340000D02*
X6014564Y6340000D01*
G04 #@! TO.C,R2*
X13264564Y5660000D02*
X11810436Y5660000D01*
X13264564Y3840000D02*
X11810436Y3840000D01*
G04 #@! TO.C,R1*
X5177064Y11660000D02*
X3722936Y11660000D01*
X5177064Y9840000D02*
X3722936Y9840000D01*
G04 #@! TO.C,J1*
X10367500Y17840000D02*
X10367500Y7560000D01*
X10367500Y7560000D02*
X15667500Y7560000D01*
X12017500Y17840000D02*
X10367500Y17840000D01*
X15667500Y17840000D02*
X14017500Y17840000D01*
X15667500Y7560000D02*
X15667500Y17840000D01*
X14017500Y17840000D02*
G75*
G02*
X12017500Y17840000I-1000000J0D01*
G01*
G04 #@! TO.C,R10*
X20263752Y18735000D02*
X19741248Y18735000D01*
X20263752Y17265000D02*
X19741248Y17265000D01*
G04 #@! TO.C,R20*
X20227064Y15485000D02*
X19772936Y15485000D01*
X20227064Y14015000D02*
X19772936Y14015000D01*
D12*
G04 #@! TO.C,U1*
X10401300Y15076055D02*
X10401300Y11593945D01*
X11239500Y9632201D02*
X11620500Y9632201D01*
X11239500Y9378201D02*
X11239500Y9632201D01*
X11620500Y9632201D02*
X11620500Y9378201D01*
X11620500Y9378201D02*
X11239500Y9378201D01*
X15633700Y11593945D02*
X15633700Y15076055D01*
D11*
G04 #@! TO.C,R12*
X4670436Y17910000D02*
X6124564Y17910000D01*
X4670436Y16090000D02*
X6124564Y16090000D01*
G04 #@! TO.C,J3*
X5550000Y33100000D02*
X5550000Y30440000D01*
X5550000Y30440000D02*
X15830000Y30440000D01*
X5610000Y27730000D02*
X5610000Y29000000D01*
X6500000Y39100000D02*
X7260000Y39100000D01*
X6500000Y33100000D02*
X6500000Y39100000D01*
X6500000Y30110000D02*
X6500000Y30440000D01*
X6560000Y33100000D02*
X6560000Y39100000D01*
X6680000Y33100000D02*
X6680000Y39100000D01*
X6800000Y33100000D02*
X6800000Y39100000D01*
X6880000Y27730000D02*
X5610000Y27730000D01*
X6920000Y33100000D02*
X6920000Y39100000D01*
X7040000Y33100000D02*
X7040000Y39100000D01*
X7160000Y33100000D02*
X7160000Y39100000D01*
X7260000Y39100000D02*
X7260000Y33100000D01*
X7260000Y30110000D02*
X7260000Y30440000D01*
X8150000Y30440000D02*
X8150000Y33100000D01*
X9040000Y39100000D02*
X9800000Y39100000D01*
X9040000Y33100000D02*
X9040000Y39100000D01*
X9040000Y30042929D02*
X9040000Y30440000D01*
X9800000Y39100000D02*
X9800000Y33100000D01*
X9800000Y30042929D02*
X9800000Y30440000D01*
X10690000Y30440000D02*
X10690000Y33100000D01*
X11580000Y39100000D02*
X12340000Y39100000D01*
X11580000Y33100000D02*
X11580000Y39100000D01*
X11580000Y30042929D02*
X11580000Y30440000D01*
X12340000Y39100000D02*
X12340000Y33100000D01*
X12340000Y30042929D02*
X12340000Y30440000D01*
X13230000Y30440000D02*
X13230000Y33100000D01*
X14120000Y39100000D02*
X14880000Y39100000D01*
X14120000Y33100000D02*
X14120000Y39100000D01*
X14120000Y30042929D02*
X14120000Y30440000D01*
X14880000Y39100000D02*
X14880000Y33100000D01*
X14880000Y30042929D02*
X14880000Y30440000D01*
X15830000Y33100000D02*
X5550000Y33100000D01*
X15830000Y30440000D02*
X15830000Y33100000D01*
G04 #@! TO.C,R5*
X14814564Y25410000D02*
X13360436Y25410000D01*
X14814564Y23590000D02*
X13360436Y23590000D01*
G04 #@! TO.C,R6*
X4447936Y26710000D02*
X8802064Y26710000D01*
X4447936Y23290000D02*
X8802064Y23290000D01*
G04 #@! TO.C,R4*
X12677064Y21910000D02*
X11222936Y21910000D01*
X12677064Y20090000D02*
X11222936Y20090000D01*
G04 #@! TO.C,J2*
X17355000Y30070000D02*
X18625000Y30070000D01*
X17355000Y28800000D02*
X17355000Y30070000D01*
X19667929Y26640000D02*
X20065000Y26640000D01*
X19667929Y25880000D02*
X20065000Y25880000D01*
X19667929Y24100000D02*
X20065000Y24100000D01*
X19667929Y23340000D02*
X20065000Y23340000D01*
X19667929Y21560000D02*
X20065000Y21560000D01*
X19667929Y20800000D02*
X20065000Y20800000D01*
X19735000Y29180000D02*
X20065000Y29180000D01*
X19735000Y28420000D02*
X20065000Y28420000D01*
X20065000Y30130000D02*
X20065000Y19850000D01*
X20065000Y27530000D02*
X22725000Y27530000D01*
X20065000Y24990000D02*
X22725000Y24990000D01*
X20065000Y22450000D02*
X22725000Y22450000D01*
X20065000Y19850000D02*
X22725000Y19850000D01*
X22725000Y30130000D02*
X20065000Y30130000D01*
X22725000Y29180000D02*
X28725000Y29180000D01*
X22725000Y29120000D02*
X28725000Y29120000D01*
X22725000Y29000000D02*
X28725000Y29000000D01*
X22725000Y28880000D02*
X28725000Y28880000D01*
X22725000Y28760000D02*
X28725000Y28760000D01*
X22725000Y28640000D02*
X28725000Y28640000D01*
X22725000Y28520000D02*
X28725000Y28520000D01*
X22725000Y26640000D02*
X28725000Y26640000D01*
X22725000Y24100000D02*
X28725000Y24100000D01*
X22725000Y21560000D02*
X28725000Y21560000D01*
X22725000Y19850000D02*
X22725000Y30130000D01*
X28725000Y29180000D02*
X28725000Y28420000D01*
X28725000Y28420000D02*
X22725000Y28420000D01*
X28725000Y26640000D02*
X28725000Y25880000D01*
X28725000Y25880000D02*
X22725000Y25880000D01*
X28725000Y24100000D02*
X28725000Y23340000D01*
X28725000Y23340000D02*
X22725000Y23340000D01*
X28725000Y21560000D02*
X28725000Y20800000D01*
X28725000Y20800000D02*
X22725000Y20800000D01*
G04 #@! TO.C,R7*
X4822936Y21910000D02*
X6277064Y21910000D01*
X4822936Y20090000D02*
X6277064Y20090000D01*
G04 #@! TD*
M02*
