G04 #@! TF.GenerationSoftware,KiCad,Pcbnew,8.0.4*
G04 #@! TF.CreationDate,2024-07-24T14:50:23+09:00*
G04 #@! TF.ProjectId,VR-Conditioner-MAX9926+reg,56522d43-6f6e-4646-9974-696f6e65722d,3.7*
G04 #@! TF.SameCoordinates,PX68c4118PY713e7a8*
G04 #@! TF.FileFunction,Soldermask,Top*
G04 #@! TF.FilePolarity,Negative*
%FSLAX46Y46*%
G04 Gerber Fmt 4.6, Leading zero omitted, Abs format (unit mm)*
G04 Created by KiCad (PCBNEW 8.0.4) date 2024-07-24 14:50:23*
%MOMM*%
%LPD*%
G01*
G04 APERTURE LIST*
G04 Aperture macros list*
%AMRoundRect*
0 Rectangle with rounded corners*
0 $1 Rounding radius*
0 $2 $3 $4 $5 $6 $7 $8 $9 X,Y pos of 4 corners*
0 Add a 4 corners polygon primitive as box body*
4,1,4,$2,$3,$4,$5,$6,$7,$8,$9,$2,$3,0*
0 Add four circle primitives for the rounded corners*
1,1,$1+$1,$2,$3*
1,1,$1+$1,$4,$5*
1,1,$1+$1,$6,$7*
1,1,$1+$1,$8,$9*
0 Add four rect primitives between the rounded corners*
20,1,$1+$1,$2,$3,$4,$5,0*
20,1,$1+$1,$4,$5,$6,$7,0*
20,1,$1+$1,$6,$7,$8,$9,0*
20,1,$1+$1,$8,$9,$2,$3,0*%
G04 Aperture macros list end*
%ADD10RoundRect,0.271617X0.366683X0.504183X-0.366683X0.504183X-0.366683X-0.504183X0.366683X-0.504183X0*%
%ADD11RoundRect,0.269169X-0.444131X-0.681631X0.444131X-0.681631X0.444131X0.681631X-0.444131X0.681631X0*%
%ADD12RoundRect,0.269169X0.444131X0.681631X-0.444131X0.681631X-0.444131X-0.681631X0.444131X-0.681631X0*%
%ADD13RoundRect,0.272578X-0.340722X-0.653222X0.340722X-0.653222X0.340722X0.653222X-0.340722X0.653222X0*%
%ADD14RoundRect,0.272578X0.340722X0.653222X-0.340722X0.653222X-0.340722X-0.653222X0.340722X-0.653222X0*%
%ADD15RoundRect,0.269539X0.431261X0.656261X-0.431261X0.656261X-0.431261X-0.656261X0.431261X-0.656261X0*%
%ADD16RoundRect,0.050800X-0.800000X-0.800000X0.800000X-0.800000X0.800000X0.800000X-0.800000X0.800000X0*%
%ADD17O,1.701600X1.701600*%
%ADD18RoundRect,0.271166X0.379634X0.479634X-0.379634X0.479634X-0.379634X-0.479634X0.379634X-0.479634X0*%
%ADD19RoundRect,0.050800X-0.177400X0.727449X-0.177400X-0.727449X0.177400X-0.727449X0.177400X0.727449X0*%
%ADD20RoundRect,0.269539X-0.431261X-0.656261X0.431261X-0.656261X0.431261X0.656261X-0.431261X0.656261X0*%
%ADD21RoundRect,0.050800X0.850000X-0.850000X0.850000X0.850000X-0.850000X0.850000X-0.850000X-0.850000X0*%
%ADD22O,1.801600X1.801600*%
%ADD23RoundRect,0.268142X-0.482658X-1.457658X0.482658X-1.457658X0.482658X1.457658X-0.482658X1.457658X0*%
%ADD24RoundRect,0.050800X-0.850000X-0.850000X0.850000X-0.850000X0.850000X0.850000X-0.850000X0.850000X0*%
G04 APERTURE END LIST*
D10*
G04 #@! TO.C,C1*
X21000000Y5000000D03*
X18925000Y5000000D03*
G04 #@! TD*
G04 #@! TO.C,C2*
X21000000Y8250000D03*
X18925000Y8250000D03*
G04 #@! TD*
G04 #@! TO.C,C3*
X21040000Y11500000D03*
X18965000Y11500000D03*
G04 #@! TD*
D11*
G04 #@! TO.C,C10*
X3250000Y13500000D03*
X6375000Y13500000D03*
G04 #@! TD*
D12*
G04 #@! TO.C,C20*
X9175000Y4750000D03*
X6050000Y4750000D03*
G04 #@! TD*
D13*
G04 #@! TO.C,R3*
X3825000Y7250000D03*
X6750000Y7250000D03*
G04 #@! TD*
D14*
G04 #@! TO.C,R2*
X14000000Y4750000D03*
X11075000Y4750000D03*
G04 #@! TD*
D15*
G04 #@! TO.C,R1*
X6000000Y10750000D03*
X2900000Y10750000D03*
G04 #@! TD*
D16*
G04 #@! TO.C,J1*
X9207500Y16510000D03*
D17*
X9207500Y13970000D03*
X9207500Y11430000D03*
X9207500Y8890000D03*
X16827500Y8890000D03*
X16827500Y11430000D03*
X16827500Y13970000D03*
X16827500Y16510000D03*
G04 #@! TD*
D10*
G04 #@! TO.C,R10*
X21040000Y18000000D03*
X18965000Y18000000D03*
G04 #@! TD*
D18*
G04 #@! TO.C,R20*
X21000000Y14750000D03*
X19000000Y14750000D03*
G04 #@! TD*
D19*
G04 #@! TO.C,U1*
X15240000Y16056348D03*
X14605000Y16056348D03*
X13970000Y16056348D03*
X13335000Y16056348D03*
X12700000Y16056348D03*
X12065000Y16056348D03*
X11430000Y16056348D03*
X10795000Y16056348D03*
X10795000Y10613652D03*
X11430000Y10613652D03*
X12065000Y10613652D03*
X12700000Y10613652D03*
X13335000Y10613652D03*
X13970000Y10613652D03*
X14605000Y10613652D03*
X15240000Y10613652D03*
G04 #@! TD*
D20*
G04 #@! TO.C,R12*
X3847500Y17000000D03*
X6947500Y17000000D03*
G04 #@! TD*
D21*
G04 #@! TO.C,J3*
X6880000Y29000000D03*
D22*
X9420000Y29000000D03*
X11960000Y29000000D03*
X14500000Y29000000D03*
G04 #@! TD*
D15*
G04 #@! TO.C,R5*
X15637500Y24500000D03*
X12537500Y24500000D03*
G04 #@! TD*
D23*
G04 #@! TO.C,R6*
X3575000Y25000000D03*
X9675000Y25000000D03*
G04 #@! TD*
D15*
G04 #@! TO.C,R4*
X13500000Y21000000D03*
X10400000Y21000000D03*
G04 #@! TD*
D24*
G04 #@! TO.C,J2*
X18625000Y28800000D03*
D22*
X18625000Y26260000D03*
X18625000Y23720000D03*
X18625000Y21180000D03*
G04 #@! TD*
D20*
G04 #@! TO.C,R7*
X4000000Y21000000D03*
X7100000Y21000000D03*
G04 #@! TD*
M02*
