G04 #@! TF.GenerationSoftware,KiCad,Pcbnew,8.0.4*
G04 #@! TF.CreationDate,2024-07-24T14:50:23+09:00*
G04 #@! TF.ProjectId,VR-Conditioner-MAX9926+reg,56522d43-6f6e-4646-9974-696f6e65722d,3.7*
G04 #@! TF.SameCoordinates,PX68c4118PY713e7a8*
G04 #@! TF.FileFunction,Legend,Bot*
G04 #@! TF.FilePolarity,Positive*
%FSLAX46Y46*%
G04 Gerber Fmt 4.6, Leading zero omitted, Abs format (unit mm)*
G04 Created by KiCad (PCBNEW 8.0.4) date 2024-07-24 14:50:23*
%MOMM*%
%LPD*%
G01*
G04 APERTURE LIST*
%ADD10C,0.150000*%
%ADD11C,0.120000*%
G04 APERTURE END LIST*
D10*
X7333333Y8433967D02*
X7333333Y9133967D01*
X7000000Y8900634D02*
X7000000Y8433967D01*
X7000000Y8833967D02*
X6966667Y8867300D01*
X6966667Y8867300D02*
X6900000Y8900634D01*
X6900000Y8900634D02*
X6800000Y8900634D01*
X6800000Y8900634D02*
X6733333Y8867300D01*
X6733333Y8867300D02*
X6700000Y8800634D01*
X6700000Y8800634D02*
X6700000Y8433967D01*
X6400000Y9067300D02*
X6366667Y9100634D01*
X6366667Y9100634D02*
X6300000Y9133967D01*
X6300000Y9133967D02*
X6133334Y9133967D01*
X6133334Y9133967D02*
X6066667Y9100634D01*
X6066667Y9100634D02*
X6033334Y9067300D01*
X6033334Y9067300D02*
X6000000Y9000634D01*
X6000000Y9000634D02*
X6000000Y8933967D01*
X6000000Y8933967D02*
X6033334Y8833967D01*
X6033334Y8833967D02*
X6433334Y8433967D01*
X6433334Y8433967D02*
X6000000Y8433967D01*
X5700000Y8700634D02*
X5166667Y8700634D01*
X5433333Y8433967D02*
X5433333Y8967300D01*
X7333333Y11183967D02*
X7333333Y11883967D01*
X7000000Y11650634D02*
X7000000Y11183967D01*
X7000000Y11583967D02*
X6966667Y11617300D01*
X6966667Y11617300D02*
X6900000Y11650634D01*
X6900000Y11650634D02*
X6800000Y11650634D01*
X6800000Y11650634D02*
X6733333Y11617300D01*
X6733333Y11617300D02*
X6700000Y11550634D01*
X6700000Y11550634D02*
X6700000Y11183967D01*
X6400000Y11817300D02*
X6366667Y11850634D01*
X6366667Y11850634D02*
X6300000Y11883967D01*
X6300000Y11883967D02*
X6133334Y11883967D01*
X6133334Y11883967D02*
X6066667Y11850634D01*
X6066667Y11850634D02*
X6033334Y11817300D01*
X6033334Y11817300D02*
X6000000Y11750634D01*
X6000000Y11750634D02*
X6000000Y11683967D01*
X6000000Y11683967D02*
X6033334Y11583967D01*
X6033334Y11583967D02*
X6433334Y11183967D01*
X6433334Y11183967D02*
X6000000Y11183967D01*
X5700000Y11450634D02*
X5166667Y11450634D01*
X7333333Y13683967D02*
X7333333Y14383967D01*
X7000000Y14150634D02*
X7000000Y13683967D01*
X7000000Y14083967D02*
X6966667Y14117300D01*
X6966667Y14117300D02*
X6900000Y14150634D01*
X6900000Y14150634D02*
X6800000Y14150634D01*
X6800000Y14150634D02*
X6733333Y14117300D01*
X6733333Y14117300D02*
X6700000Y14050634D01*
X6700000Y14050634D02*
X6700000Y13683967D01*
X6000000Y13683967D02*
X6400000Y13683967D01*
X6200000Y13683967D02*
X6200000Y14383967D01*
X6200000Y14383967D02*
X6266667Y14283967D01*
X6266667Y14283967D02*
X6333334Y14217300D01*
X6333334Y14217300D02*
X6400000Y14183967D01*
X5700000Y13950634D02*
X5166667Y13950634D01*
X20801666Y16260634D02*
X20834999Y16227300D01*
X20834999Y16227300D02*
X20934999Y16193967D01*
X20934999Y16193967D02*
X21001666Y16193967D01*
X21001666Y16193967D02*
X21101666Y16227300D01*
X21101666Y16227300D02*
X21168333Y16293967D01*
X21168333Y16293967D02*
X21201666Y16360634D01*
X21201666Y16360634D02*
X21234999Y16493967D01*
X21234999Y16493967D02*
X21234999Y16593967D01*
X21234999Y16593967D02*
X21201666Y16727300D01*
X21201666Y16727300D02*
X21168333Y16793967D01*
X21168333Y16793967D02*
X21101666Y16860634D01*
X21101666Y16860634D02*
X21001666Y16893967D01*
X21001666Y16893967D02*
X20934999Y16893967D01*
X20934999Y16893967D02*
X20834999Y16860634D01*
X20834999Y16860634D02*
X20801666Y16827300D01*
X20368333Y16893967D02*
X20234999Y16893967D01*
X20234999Y16893967D02*
X20168333Y16860634D01*
X20168333Y16860634D02*
X20101666Y16793967D01*
X20101666Y16793967D02*
X20068333Y16660634D01*
X20068333Y16660634D02*
X20068333Y16427300D01*
X20068333Y16427300D02*
X20101666Y16293967D01*
X20101666Y16293967D02*
X20168333Y16227300D01*
X20168333Y16227300D02*
X20234999Y16193967D01*
X20234999Y16193967D02*
X20368333Y16193967D01*
X20368333Y16193967D02*
X20434999Y16227300D01*
X20434999Y16227300D02*
X20501666Y16293967D01*
X20501666Y16293967D02*
X20534999Y16427300D01*
X20534999Y16427300D02*
X20534999Y16660634D01*
X20534999Y16660634D02*
X20501666Y16793967D01*
X20501666Y16793967D02*
X20434999Y16860634D01*
X20434999Y16860634D02*
X20368333Y16893967D01*
X19768333Y16893967D02*
X19768333Y16327300D01*
X19768333Y16327300D02*
X19735000Y16260634D01*
X19735000Y16260634D02*
X19701666Y16227300D01*
X19701666Y16227300D02*
X19635000Y16193967D01*
X19635000Y16193967D02*
X19501666Y16193967D01*
X19501666Y16193967D02*
X19435000Y16227300D01*
X19435000Y16227300D02*
X19401666Y16260634D01*
X19401666Y16260634D02*
X19368333Y16327300D01*
X19368333Y16327300D02*
X19368333Y16893967D01*
X19135000Y16893967D02*
X18735000Y16893967D01*
X18935000Y16193967D02*
X18935000Y16893967D01*
X18135000Y16193967D02*
X18535000Y16193967D01*
X18335000Y16193967D02*
X18335000Y16893967D01*
X18335000Y16893967D02*
X18401667Y16793967D01*
X18401667Y16793967D02*
X18468334Y16727300D01*
X18468334Y16727300D02*
X18535000Y16693967D01*
X20801666Y13720634D02*
X20834999Y13687300D01*
X20834999Y13687300D02*
X20934999Y13653967D01*
X20934999Y13653967D02*
X21001666Y13653967D01*
X21001666Y13653967D02*
X21101666Y13687300D01*
X21101666Y13687300D02*
X21168333Y13753967D01*
X21168333Y13753967D02*
X21201666Y13820634D01*
X21201666Y13820634D02*
X21234999Y13953967D01*
X21234999Y13953967D02*
X21234999Y14053967D01*
X21234999Y14053967D02*
X21201666Y14187300D01*
X21201666Y14187300D02*
X21168333Y14253967D01*
X21168333Y14253967D02*
X21101666Y14320634D01*
X21101666Y14320634D02*
X21001666Y14353967D01*
X21001666Y14353967D02*
X20934999Y14353967D01*
X20934999Y14353967D02*
X20834999Y14320634D01*
X20834999Y14320634D02*
X20801666Y14287300D01*
X20368333Y14353967D02*
X20234999Y14353967D01*
X20234999Y14353967D02*
X20168333Y14320634D01*
X20168333Y14320634D02*
X20101666Y14253967D01*
X20101666Y14253967D02*
X20068333Y14120634D01*
X20068333Y14120634D02*
X20068333Y13887300D01*
X20068333Y13887300D02*
X20101666Y13753967D01*
X20101666Y13753967D02*
X20168333Y13687300D01*
X20168333Y13687300D02*
X20234999Y13653967D01*
X20234999Y13653967D02*
X20368333Y13653967D01*
X20368333Y13653967D02*
X20434999Y13687300D01*
X20434999Y13687300D02*
X20501666Y13753967D01*
X20501666Y13753967D02*
X20534999Y13887300D01*
X20534999Y13887300D02*
X20534999Y14120634D01*
X20534999Y14120634D02*
X20501666Y14253967D01*
X20501666Y14253967D02*
X20434999Y14320634D01*
X20434999Y14320634D02*
X20368333Y14353967D01*
X19768333Y14353967D02*
X19768333Y13787300D01*
X19768333Y13787300D02*
X19735000Y13720634D01*
X19735000Y13720634D02*
X19701666Y13687300D01*
X19701666Y13687300D02*
X19635000Y13653967D01*
X19635000Y13653967D02*
X19501666Y13653967D01*
X19501666Y13653967D02*
X19435000Y13687300D01*
X19435000Y13687300D02*
X19401666Y13720634D01*
X19401666Y13720634D02*
X19368333Y13787300D01*
X19368333Y13787300D02*
X19368333Y14353967D01*
X19135000Y14353967D02*
X18735000Y14353967D01*
X18935000Y13653967D02*
X18935000Y14353967D01*
X18535000Y14287300D02*
X18501667Y14320634D01*
X18501667Y14320634D02*
X18435000Y14353967D01*
X18435000Y14353967D02*
X18268334Y14353967D01*
X18268334Y14353967D02*
X18201667Y14320634D01*
X18201667Y14320634D02*
X18168334Y14287300D01*
X18168334Y14287300D02*
X18135000Y14220634D01*
X18135000Y14220634D02*
X18135000Y14153967D01*
X18135000Y14153967D02*
X18168334Y14053967D01*
X18168334Y14053967D02*
X18568334Y13653967D01*
X18568334Y13653967D02*
X18135000Y13653967D01*
X19583332Y11780634D02*
X19649999Y11813967D01*
X19649999Y11813967D02*
X19749999Y11813967D01*
X19749999Y11813967D02*
X19849999Y11780634D01*
X19849999Y11780634D02*
X19916666Y11713967D01*
X19916666Y11713967D02*
X19949999Y11647300D01*
X19949999Y11647300D02*
X19983332Y11513967D01*
X19983332Y11513967D02*
X19983332Y11413967D01*
X19983332Y11413967D02*
X19949999Y11280634D01*
X19949999Y11280634D02*
X19916666Y11213967D01*
X19916666Y11213967D02*
X19849999Y11147300D01*
X19849999Y11147300D02*
X19749999Y11113967D01*
X19749999Y11113967D02*
X19683332Y11113967D01*
X19683332Y11113967D02*
X19583332Y11147300D01*
X19583332Y11147300D02*
X19549999Y11180634D01*
X19549999Y11180634D02*
X19549999Y11413967D01*
X19549999Y11413967D02*
X19683332Y11413967D01*
X19249999Y11113967D02*
X19249999Y11813967D01*
X19249999Y11813967D02*
X18849999Y11113967D01*
X18849999Y11113967D02*
X18849999Y11813967D01*
X18516666Y11113967D02*
X18516666Y11813967D01*
X18516666Y11813967D02*
X18349999Y11813967D01*
X18349999Y11813967D02*
X18249999Y11780634D01*
X18249999Y11780634D02*
X18183333Y11713967D01*
X18183333Y11713967D02*
X18149999Y11647300D01*
X18149999Y11647300D02*
X18116666Y11513967D01*
X18116666Y11513967D02*
X18116666Y11413967D01*
X18116666Y11413967D02*
X18149999Y11280634D01*
X18149999Y11280634D02*
X18183333Y11213967D01*
X18183333Y11213967D02*
X18249999Y11147300D01*
X18249999Y11147300D02*
X18349999Y11113967D01*
X18349999Y11113967D02*
X18516666Y11113967D01*
X19616667Y9273967D02*
X19950000Y9273967D01*
X19950000Y9273967D02*
X19983333Y8940634D01*
X19983333Y8940634D02*
X19950000Y8973967D01*
X19950000Y8973967D02*
X19883333Y9007300D01*
X19883333Y9007300D02*
X19716667Y9007300D01*
X19716667Y9007300D02*
X19650000Y8973967D01*
X19650000Y8973967D02*
X19616667Y8940634D01*
X19616667Y8940634D02*
X19583333Y8873967D01*
X19583333Y8873967D02*
X19583333Y8707300D01*
X19583333Y8707300D02*
X19616667Y8640634D01*
X19616667Y8640634D02*
X19650000Y8607300D01*
X19650000Y8607300D02*
X19716667Y8573967D01*
X19716667Y8573967D02*
X19883333Y8573967D01*
X19883333Y8573967D02*
X19950000Y8607300D01*
X19950000Y8607300D02*
X19983333Y8640634D01*
X19383333Y9273967D02*
X19150000Y8573967D01*
X19150000Y8573967D02*
X18916666Y9273967D01*
X18683333Y8840634D02*
X18150000Y8840634D01*
X18416666Y8573967D02*
X18416666Y9107300D01*
X7433333Y16193967D02*
X7433333Y16893967D01*
X7100000Y16660634D02*
X7100000Y16193967D01*
X7100000Y16593967D02*
X7066667Y16627300D01*
X7066667Y16627300D02*
X7000000Y16660634D01*
X7000000Y16660634D02*
X6900000Y16660634D01*
X6900000Y16660634D02*
X6833333Y16627300D01*
X6833333Y16627300D02*
X6800000Y16560634D01*
X6800000Y16560634D02*
X6800000Y16193967D01*
X6100000Y16193967D02*
X6500000Y16193967D01*
X6300000Y16193967D02*
X6300000Y16893967D01*
X6300000Y16893967D02*
X6366667Y16793967D01*
X6366667Y16793967D02*
X6433334Y16727300D01*
X6433334Y16727300D02*
X6500000Y16693967D01*
X5800000Y16460634D02*
X5266667Y16460634D01*
X5533333Y16193967D02*
X5533333Y16727300D01*
X21068119Y12466556D02*
X21553833Y12466556D01*
X21553833Y12466556D02*
X21610976Y12437985D01*
X21610976Y12437985D02*
X21639548Y12409413D01*
X21639548Y12409413D02*
X21668119Y12352271D01*
X21668119Y12352271D02*
X21668119Y12237985D01*
X21668119Y12237985D02*
X21639548Y12180842D01*
X21639548Y12180842D02*
X21610976Y12152271D01*
X21610976Y12152271D02*
X21553833Y12123699D01*
X21553833Y12123699D02*
X21068119Y12123699D01*
X21668119Y11837985D02*
X21068119Y11837985D01*
X21068119Y11837985D02*
X21668119Y11495128D01*
X21668119Y11495128D02*
X21068119Y11495128D01*
X21668119Y11209414D02*
X21068119Y11209414D01*
X21068119Y11209414D02*
X21068119Y11066557D01*
X21068119Y11066557D02*
X21096690Y10980843D01*
X21096690Y10980843D02*
X21153833Y10923700D01*
X21153833Y10923700D02*
X21210976Y10895129D01*
X21210976Y10895129D02*
X21325262Y10866557D01*
X21325262Y10866557D02*
X21410976Y10866557D01*
X21410976Y10866557D02*
X21525262Y10895129D01*
X21525262Y10895129D02*
X21582405Y10923700D01*
X21582405Y10923700D02*
X21639548Y10980843D01*
X21639548Y10980843D02*
X21668119Y11066557D01*
X21668119Y11066557D02*
X21668119Y11209414D01*
X21353833Y10609414D02*
X21353833Y10409414D01*
X21668119Y10323700D02*
X21668119Y10609414D01*
X21668119Y10609414D02*
X21068119Y10609414D01*
X21068119Y10609414D02*
X21068119Y10323700D01*
X21668119Y9723700D02*
X21382405Y9923700D01*
X21668119Y10066557D02*
X21068119Y10066557D01*
X21068119Y10066557D02*
X21068119Y9837986D01*
X21068119Y9837986D02*
X21096690Y9780843D01*
X21096690Y9780843D02*
X21125262Y9752272D01*
X21125262Y9752272D02*
X21182405Y9723700D01*
X21182405Y9723700D02*
X21268119Y9723700D01*
X21268119Y9723700D02*
X21325262Y9752272D01*
X21325262Y9752272D02*
X21353833Y9780843D01*
X21353833Y9780843D02*
X21382405Y9837986D01*
X21382405Y9837986D02*
X21382405Y10066557D01*
X21639548Y9495129D02*
X21668119Y9409414D01*
X21668119Y9409414D02*
X21668119Y9266557D01*
X21668119Y9266557D02*
X21639548Y9209414D01*
X21639548Y9209414D02*
X21610976Y9180843D01*
X21610976Y9180843D02*
X21553833Y9152272D01*
X21553833Y9152272D02*
X21496690Y9152272D01*
X21496690Y9152272D02*
X21439548Y9180843D01*
X21439548Y9180843D02*
X21410976Y9209414D01*
X21410976Y9209414D02*
X21382405Y9266557D01*
X21382405Y9266557D02*
X21353833Y9380843D01*
X21353833Y9380843D02*
X21325262Y9437986D01*
X21325262Y9437986D02*
X21296690Y9466557D01*
X21296690Y9466557D02*
X21239548Y9495129D01*
X21239548Y9495129D02*
X21182405Y9495129D01*
X21182405Y9495129D02*
X21125262Y9466557D01*
X21125262Y9466557D02*
X21096690Y9437986D01*
X21096690Y9437986D02*
X21068119Y9380843D01*
X21068119Y9380843D02*
X21068119Y9237986D01*
X21068119Y9237986D02*
X21096690Y9152272D01*
X21668119Y8895128D02*
X21068119Y8895128D01*
X21668119Y8609414D02*
X21068119Y8609414D01*
X21068119Y8609414D02*
X21068119Y8466557D01*
X21068119Y8466557D02*
X21096690Y8380843D01*
X21096690Y8380843D02*
X21153833Y8323700D01*
X21153833Y8323700D02*
X21210976Y8295129D01*
X21210976Y8295129D02*
X21325262Y8266557D01*
X21325262Y8266557D02*
X21410976Y8266557D01*
X21410976Y8266557D02*
X21525262Y8295129D01*
X21525262Y8295129D02*
X21582405Y8323700D01*
X21582405Y8323700D02*
X21639548Y8380843D01*
X21639548Y8380843D02*
X21668119Y8466557D01*
X21668119Y8466557D02*
X21668119Y8609414D01*
X21353833Y8009414D02*
X21353833Y7809414D01*
X21668119Y7723700D02*
X21668119Y8009414D01*
X21668119Y8009414D02*
X21068119Y8009414D01*
X21068119Y8009414D02*
X21068119Y7723700D01*
X11428533Y17268334D02*
X10728533Y17268334D01*
X10728533Y17268334D02*
X11228533Y17035000D01*
X11228533Y17035000D02*
X10728533Y16801667D01*
X10728533Y16801667D02*
X11428533Y16801667D01*
X11228533Y16501667D02*
X11228533Y16168334D01*
X11428533Y16568334D02*
X10728533Y16335000D01*
X10728533Y16335000D02*
X11428533Y16101667D01*
X10728533Y15935000D02*
X11428533Y15468334D01*
X10728533Y15468334D02*
X11428533Y15935000D01*
X11428533Y15168333D02*
X11428533Y15035000D01*
X11428533Y15035000D02*
X11395200Y14968333D01*
X11395200Y14968333D02*
X11361866Y14935000D01*
X11361866Y14935000D02*
X11261866Y14868333D01*
X11261866Y14868333D02*
X11128533Y14835000D01*
X11128533Y14835000D02*
X10861866Y14835000D01*
X10861866Y14835000D02*
X10795200Y14868333D01*
X10795200Y14868333D02*
X10761866Y14901667D01*
X10761866Y14901667D02*
X10728533Y14968333D01*
X10728533Y14968333D02*
X10728533Y15101667D01*
X10728533Y15101667D02*
X10761866Y15168333D01*
X10761866Y15168333D02*
X10795200Y15201667D01*
X10795200Y15201667D02*
X10861866Y15235000D01*
X10861866Y15235000D02*
X11028533Y15235000D01*
X11028533Y15235000D02*
X11095200Y15201667D01*
X11095200Y15201667D02*
X11128533Y15168333D01*
X11128533Y15168333D02*
X11161866Y15101667D01*
X11161866Y15101667D02*
X11161866Y14968333D01*
X11161866Y14968333D02*
X11128533Y14901667D01*
X11128533Y14901667D02*
X11095200Y14868333D01*
X11095200Y14868333D02*
X11028533Y14835000D01*
X11428533Y14501666D02*
X11428533Y14368333D01*
X11428533Y14368333D02*
X11395200Y14301666D01*
X11395200Y14301666D02*
X11361866Y14268333D01*
X11361866Y14268333D02*
X11261866Y14201666D01*
X11261866Y14201666D02*
X11128533Y14168333D01*
X11128533Y14168333D02*
X10861866Y14168333D01*
X10861866Y14168333D02*
X10795200Y14201666D01*
X10795200Y14201666D02*
X10761866Y14235000D01*
X10761866Y14235000D02*
X10728533Y14301666D01*
X10728533Y14301666D02*
X10728533Y14435000D01*
X10728533Y14435000D02*
X10761866Y14501666D01*
X10761866Y14501666D02*
X10795200Y14535000D01*
X10795200Y14535000D02*
X10861866Y14568333D01*
X10861866Y14568333D02*
X11028533Y14568333D01*
X11028533Y14568333D02*
X11095200Y14535000D01*
X11095200Y14535000D02*
X11128533Y14501666D01*
X11128533Y14501666D02*
X11161866Y14435000D01*
X11161866Y14435000D02*
X11161866Y14301666D01*
X11161866Y14301666D02*
X11128533Y14235000D01*
X11128533Y14235000D02*
X11095200Y14201666D01*
X11095200Y14201666D02*
X11028533Y14168333D01*
X10795200Y13901666D02*
X10761866Y13868333D01*
X10761866Y13868333D02*
X10728533Y13801666D01*
X10728533Y13801666D02*
X10728533Y13634999D01*
X10728533Y13634999D02*
X10761866Y13568333D01*
X10761866Y13568333D02*
X10795200Y13534999D01*
X10795200Y13534999D02*
X10861866Y13501666D01*
X10861866Y13501666D02*
X10928533Y13501666D01*
X10928533Y13501666D02*
X11028533Y13534999D01*
X11028533Y13534999D02*
X11428533Y13934999D01*
X11428533Y13934999D02*
X11428533Y13501666D01*
X10728533Y12901666D02*
X10728533Y13034999D01*
X10728533Y13034999D02*
X10761866Y13101666D01*
X10761866Y13101666D02*
X10795200Y13134999D01*
X10795200Y13134999D02*
X10895200Y13201666D01*
X10895200Y13201666D02*
X11028533Y13234999D01*
X11028533Y13234999D02*
X11295200Y13234999D01*
X11295200Y13234999D02*
X11361866Y13201666D01*
X11361866Y13201666D02*
X11395200Y13168332D01*
X11395200Y13168332D02*
X11428533Y13101666D01*
X11428533Y13101666D02*
X11428533Y12968332D01*
X11428533Y12968332D02*
X11395200Y12901666D01*
X11395200Y12901666D02*
X11361866Y12868332D01*
X11361866Y12868332D02*
X11295200Y12834999D01*
X11295200Y12834999D02*
X11128533Y12834999D01*
X11128533Y12834999D02*
X11061866Y12868332D01*
X11061866Y12868332D02*
X11028533Y12901666D01*
X11028533Y12901666D02*
X10995200Y12968332D01*
X10995200Y12968332D02*
X10995200Y13101666D01*
X10995200Y13101666D02*
X11028533Y13168332D01*
X11028533Y13168332D02*
X11061866Y13201666D01*
X11061866Y13201666D02*
X11128533Y13234999D01*
X10728533Y12534999D02*
X11295200Y12534999D01*
X11295200Y12534999D02*
X11361866Y12501665D01*
X11361866Y12501665D02*
X11395200Y12468332D01*
X11395200Y12468332D02*
X11428533Y12401665D01*
X11428533Y12401665D02*
X11428533Y12268332D01*
X11428533Y12268332D02*
X11395200Y12201665D01*
X11395200Y12201665D02*
X11361866Y12168332D01*
X11361866Y12168332D02*
X11295200Y12134999D01*
X11295200Y12134999D02*
X10728533Y12134999D01*
X11228533Y11834999D02*
X11228533Y11501666D01*
X11428533Y11901666D02*
X10728533Y11668332D01*
X10728533Y11668332D02*
X11428533Y11434999D01*
X11061866Y11201666D02*
X11061866Y10968332D01*
X11428533Y10868332D02*
X11428533Y11201666D01*
X11428533Y11201666D02*
X10728533Y11201666D01*
X10728533Y11201666D02*
X10728533Y10868332D01*
X11061866Y10568333D02*
X11061866Y10334999D01*
X11428533Y10234999D02*
X11428533Y10568333D01*
X11428533Y10568333D02*
X10728533Y10568333D01*
X10728533Y10568333D02*
X10728533Y10234999D01*
X11161866Y9935000D02*
X11161866Y9401666D01*
X11428533Y9668333D02*
X10895200Y9668333D01*
X13092857Y2725181D02*
X13426190Y3201372D01*
X13664285Y2725181D02*
X13664285Y3725181D01*
X13664285Y3725181D02*
X13283333Y3725181D01*
X13283333Y3725181D02*
X13188095Y3677562D01*
X13188095Y3677562D02*
X13140476Y3629943D01*
X13140476Y3629943D02*
X13092857Y3534705D01*
X13092857Y3534705D02*
X13092857Y3391848D01*
X13092857Y3391848D02*
X13140476Y3296610D01*
X13140476Y3296610D02*
X13188095Y3248991D01*
X13188095Y3248991D02*
X13283333Y3201372D01*
X13283333Y3201372D02*
X13664285Y3201372D01*
X12711904Y3629943D02*
X12664285Y3677562D01*
X12664285Y3677562D02*
X12569047Y3725181D01*
X12569047Y3725181D02*
X12330952Y3725181D01*
X12330952Y3725181D02*
X12235714Y3677562D01*
X12235714Y3677562D02*
X12188095Y3629943D01*
X12188095Y3629943D02*
X12140476Y3534705D01*
X12140476Y3534705D02*
X12140476Y3439467D01*
X12140476Y3439467D02*
X12188095Y3296610D01*
X12188095Y3296610D02*
X12759523Y2725181D01*
X12759523Y2725181D02*
X12140476Y2725181D01*
X11807142Y3725181D02*
X11188095Y3725181D01*
X11188095Y3725181D02*
X11521428Y3344229D01*
X11521428Y3344229D02*
X11378571Y3344229D01*
X11378571Y3344229D02*
X11283333Y3296610D01*
X11283333Y3296610D02*
X11235714Y3248991D01*
X11235714Y3248991D02*
X11188095Y3153753D01*
X11188095Y3153753D02*
X11188095Y2915658D01*
X11188095Y2915658D02*
X11235714Y2820420D01*
X11235714Y2820420D02*
X11283333Y2772800D01*
X11283333Y2772800D02*
X11378571Y2725181D01*
X11378571Y2725181D02*
X11664285Y2725181D01*
X11664285Y2725181D02*
X11759523Y2772800D01*
X11759523Y2772800D02*
X11807142Y2820420D01*
X18092857Y6365181D02*
X18426190Y6841372D01*
X18664285Y6365181D02*
X18664285Y7365181D01*
X18664285Y7365181D02*
X18283333Y7365181D01*
X18283333Y7365181D02*
X18188095Y7317562D01*
X18188095Y7317562D02*
X18140476Y7269943D01*
X18140476Y7269943D02*
X18092857Y7174705D01*
X18092857Y7174705D02*
X18092857Y7031848D01*
X18092857Y7031848D02*
X18140476Y6936610D01*
X18140476Y6936610D02*
X18188095Y6888991D01*
X18188095Y6888991D02*
X18283333Y6841372D01*
X18283333Y6841372D02*
X18664285Y6841372D01*
X17140476Y6365181D02*
X17711904Y6365181D01*
X17426190Y6365181D02*
X17426190Y7365181D01*
X17426190Y7365181D02*
X17521428Y7222324D01*
X17521428Y7222324D02*
X17616666Y7127086D01*
X17616666Y7127086D02*
X17711904Y7079467D01*
X16807142Y7365181D02*
X16188095Y7365181D01*
X16188095Y7365181D02*
X16521428Y6984229D01*
X16521428Y6984229D02*
X16378571Y6984229D01*
X16378571Y6984229D02*
X16283333Y6936610D01*
X16283333Y6936610D02*
X16235714Y6888991D01*
X16235714Y6888991D02*
X16188095Y6793753D01*
X16188095Y6793753D02*
X16188095Y6555658D01*
X16188095Y6555658D02*
X16235714Y6460420D01*
X16235714Y6460420D02*
X16283333Y6412800D01*
X16283333Y6412800D02*
X16378571Y6365181D01*
X16378571Y6365181D02*
X16664285Y6365181D01*
X16664285Y6365181D02*
X16759523Y6412800D01*
X16759523Y6412800D02*
X16807142Y6460420D01*
D11*
G04 #@! TO.C,R23*
X13177064Y5910000D02*
X11722936Y5910000D01*
X13177064Y4090000D02*
X11722936Y4090000D01*
G04 #@! TO.C,R13*
X16722936Y5910000D02*
X18177064Y5910000D01*
X16722936Y4090000D02*
X18177064Y4090000D01*
G04 #@! TD*
M02*
