%TF.GenerationSoftware,KiCad,Pcbnew,8.0.4*%
%TF.CreationDate,2024-07-24T14:51:08+09:00*%
%TF.ProjectId,VR-Conditioner-MAX9926+reg,56522d43-6f6e-4646-9974-696f6e65722d,3.7*%
%TF.SameCoordinates,PX68c4118PY713e7a8*%
%TF.FileFunction,Drillmap*%
%TF.FilePolarity,Positive*%
%FSLAX45Y45*%
G04 Gerber Fmt 4.5, Leading zero omitted, Abs format (unit mm)*
G04 Created by KiCad (PCBNEW 8.0.4) date 2024-07-24 14:51:08*
%MOMM*%
%LPD*%
G01*
G04 APERTURE LIST*
%ADD10C,0.150000*%
%ADD11C,0.200000*%
G04 APERTURE END LIST*
D10*
X2350000Y3125000D02*
X2350000Y254000D01*
X2350000Y254000D02*
X150000Y250000D01*
X150000Y250000D02*
X150000Y3125000D01*
X2350000Y3125000D02*
X150000Y3125000D01*
D11*
X403277Y-68984D02*
X403277Y131016D01*
X403277Y131016D02*
X450896Y131016D01*
X450896Y131016D02*
X479467Y121492D01*
X479467Y121492D02*
X498515Y102445D01*
X498515Y102445D02*
X508039Y83397D01*
X508039Y83397D02*
X517562Y45302D01*
X517562Y45302D02*
X517562Y16731D01*
X517562Y16731D02*
X508039Y-21365D01*
X508039Y-21365D02*
X498515Y-40412D01*
X498515Y-40412D02*
X479467Y-59460D01*
X479467Y-59460D02*
X450896Y-68984D01*
X450896Y-68984D02*
X403277Y-68984D01*
X603277Y-68984D02*
X603277Y64350D01*
X603277Y26254D02*
X612801Y45302D01*
X612801Y45302D02*
X622324Y54826D01*
X622324Y54826D02*
X641372Y64350D01*
X641372Y64350D02*
X660420Y64350D01*
X727086Y-68984D02*
X727086Y64350D01*
X727086Y131016D02*
X717562Y121492D01*
X717562Y121492D02*
X727086Y111969D01*
X727086Y111969D02*
X736610Y121492D01*
X736610Y121492D02*
X727086Y131016D01*
X727086Y131016D02*
X727086Y111969D01*
X850896Y-68984D02*
X831848Y-59460D01*
X831848Y-59460D02*
X822324Y-40412D01*
X822324Y-40412D02*
X822324Y131016D01*
X955658Y-68984D02*
X936610Y-59460D01*
X936610Y-59460D02*
X927086Y-40412D01*
X927086Y-40412D02*
X927086Y131016D01*
X1184229Y-68984D02*
X1184229Y131016D01*
X1184229Y131016D02*
X1250896Y-11841D01*
X1250896Y-11841D02*
X1317563Y131016D01*
X1317563Y131016D02*
X1317563Y-68984D01*
X1498515Y-68984D02*
X1498515Y35778D01*
X1498515Y35778D02*
X1488991Y54826D01*
X1488991Y54826D02*
X1469943Y64350D01*
X1469943Y64350D02*
X1431848Y64350D01*
X1431848Y64350D02*
X1412801Y54826D01*
X1498515Y-59460D02*
X1479467Y-68984D01*
X1479467Y-68984D02*
X1431848Y-68984D01*
X1431848Y-68984D02*
X1412801Y-59460D01*
X1412801Y-59460D02*
X1403277Y-40412D01*
X1403277Y-40412D02*
X1403277Y-21365D01*
X1403277Y-21365D02*
X1412801Y-2317D01*
X1412801Y-2317D02*
X1431848Y7207D01*
X1431848Y7207D02*
X1479467Y7207D01*
X1479467Y7207D02*
X1498515Y16731D01*
X1593753Y64350D02*
X1593753Y-135650D01*
X1593753Y54826D02*
X1612801Y64350D01*
X1612801Y64350D02*
X1650896Y64350D01*
X1650896Y64350D02*
X1669943Y54826D01*
X1669943Y54826D02*
X1679467Y45302D01*
X1679467Y45302D02*
X1688991Y26254D01*
X1688991Y26254D02*
X1688991Y-30888D01*
X1688991Y-30888D02*
X1679467Y-49936D01*
X1679467Y-49936D02*
X1669943Y-59460D01*
X1669943Y-59460D02*
X1650896Y-68984D01*
X1650896Y-68984D02*
X1612801Y-68984D01*
X1612801Y-68984D02*
X1593753Y-59460D01*
X1774705Y-49936D02*
X1784229Y-59460D01*
X1784229Y-59460D02*
X1774705Y-68984D01*
X1774705Y-68984D02*
X1765182Y-59460D01*
X1765182Y-59460D02*
X1774705Y-49936D01*
X1774705Y-49936D02*
X1774705Y-68984D01*
X1774705Y54826D02*
X1784229Y45302D01*
X1784229Y45302D02*
X1774705Y35778D01*
X1774705Y35778D02*
X1765182Y45302D01*
X1765182Y45302D02*
X1774705Y54826D01*
X1774705Y54826D02*
X1774705Y35778D01*
M02*
